<svg id="Layer_1" xmlns="http://www.w3.org/2000/svg" viewBox="0 0 354.5 70"><style>.st0{fill:#ffc10e}.st1{fill:#fbbb80}.st2{fill:#2da34a;stroke:#2da34a;stroke-miterlimit:10}.st3{fill:#0094d4}.st4{fill:#ee4023}.st5{fill:#231f20}.st6{fill:#fff}.st7{fill:#0090d1}</style><path class="st0" d="M23.1 14.2l8.5 1.5.6-.5-2.2-1 2.8-.7-3.1-.7 3.3-1.3-3.4-.1 2.5-1.8-3.2.4L31 7.9l-2.7.9 1.3-2.3-2.3 1.2.8-2.5L26 6.8l.3-2.7-1.5 2.1-.3-2.4L23.3 6l-.7-2.5-.7 2.3-1.2-2-.3 2.4-1.8-1.9.4 2.6-2-1.7.7 2.6-2.2-1.4 1.4 2.4-2.6-.9 1.7 2-2.7-.2 2 1.7h-2.6l2.6 1.4-3.2.7 2.8.6-2.4 1.3 2.9.4 1.1-1.1 1.7.1 2.4-.6z"/><path class="st1" d="M8.7 52.5l6.8-3.1 2.1 1.6 3.6 1.5 4.6-1 3.7-2.3 6.6 3.3 2.7-6.1-6-.8L22 42.7l-3.7 1.5-3.4.8-8.8 1.2z"/><path class="st2" d="M35.7 58.2c-.5-.1-1.2-.1-2.1.3-.1 0-.2 0-.3-.1s-.1-.2-.1-.3c0 0 .3-.6.3-1.3-.2.2-.5.4-.7.6-.6.7-.9 1.5-.9 2.3h.4c.2 0 .4 0 .6-.1.7 0 1.7-.4 2.8-1.4"/><path class="st2" d="M37.6 55.6c-.5 0-1.2.2-2 .7-.1.1-.2.1-.3 0s-.1-.2-.1-.3c0 0 .1-.7.1-1.4-.2.2-.4.5-.5.7-.5.8-.7 1.6-.7 2.3h.1c.2 0 .6 0 1-.2.4-.1.9-.4 1.3-.7.4-.2.8-.6 1.1-1.1"/><path class="st2" d="M39.2 52.9c-.5.1-1.2.3-1.9.9-.1.1-.2.1-.3 0-.1 0-.1-.1-.1-.3 0 0 .1-.7-.1-1.4-.2.2-.3.5-.5.8-.4.8-.6 1.6-.4 2.4.2 0 .6-.1 1.1-.3.4-.2.8-.5 1.2-.8.4-.3.7-.8 1-1.3"/><path class="st2" d="M40.5 50c-.1 0-.2 0-.3.1-.4.1-1 .4-1.5 1-.1.1-.2.1-.3.1s-.2-.1-.2-.2c0 0 0-.7-.2-1.3-.1.3-.3.5-.4.8-.3.9-.4 1.7-.1 2.5.2 0 .6-.1 1.1-.4.4-.2.8-.6 1.1-1 .3-.6.6-1.1.8-1.6"/><path class="st2" d="M41.4 47c-.4.2-1.1.5-1.7 1.3-.1.1-.2.1-.3.1s-.2-.1-.2-.2c0 0-.1-.7-.4-1.4l-.3.9c-.2.6-.3 1.6.1 2.5.2 0 .6-.2 1-.5s.7-.6 1-1.1c.4-.5.7-1 .8-1.6.1 0 .1 0 0 0m-30 9.8c0 .7.3 1.3.3 1.3 0 .1 0 .2-.1.3s-.2.1-.3.1c-.9-.3-1.6-.3-2.1-.3.9.8 1.8 1.3 2.7 1.5.2 0 .4.1.6.1h.4c.2-1.5-.9-2.5-1.5-3"/><path class="st2" d="M42 43.9c-.4.2-1 .7-1.5 1.5-.1.1-.2.1-.3.1s-.2-.1-.2-.2c0 0-.2-.8-.5-1.4-.1.3-.1.6-.2.9-.1 1 0 1.8.4 2.5.2-.1.6-.3.9-.6.3-.3.6-.7.9-1.2.3-.5.5-1 .5-1.6.1 0 .1 0 0 0"/><path class="st2" d="M41 42.4c0 .1-.1.2-.2.1-.1 0-.2-.1-.2-.2 0 0-.2-.7-.7-1.2-.1.3-.1.6-.1.9 0 .9.2 1.7.7 2.4.1-.1.5-.3.9-.7.3-.4.5-.8.7-1.3s.3-1 .3-1.6c-.5.2-1 .8-1.4 1.6"/><path class="st2" d="M40.9 39.6c-.1 0-.2-.1-.2-.1s-.3-.6-.8-1.1c0 .8.1 2.2.9 3.1.1-.1.5-.3.8-.8.3-.4.5-.8.6-1.3s.2-1.1.2-1.7c-.4.3-.9.9-1.2 1.7-.1.1-.2.1-.3.2"/><path class="st2" d="M40.7 36.5c-.1 0-.2 0-.3-.1 0 0-.4-.6-.8-1 .1.8.3 2.3 1.2 3 .1-.1.4-.4.7-.9.2-.4.4-.9.5-1.4s.1-1.1 0-1.7c-.3.3-.8.9-1 1.8-.1.2-.2.3-.3.3"/><path class="st2" d="M40.3 33.6c-.1 0-.2 0-.3-.1 0 0-.4-.6-.9-1 0 .3.1.6.2.9.2.6.5 1.5 1.2 2.1.1-.1.4-.4.7-.9.2-.4.3-.9.4-1.4.1-.5 0-1.1-.1-1.7-.3.4-.7 1-.9 1.9-.1.1-.2.1-.3.2"/><path class="st2" d="M39.7 30.7c-.1 0-.2 0-.3-.1 0 0-.5-.5-1.1-.9.1.3.2.6.3.8.3.9.8 1.5 1.5 1.9.1-.1.4-.5.5-1 .1-.4.2-.9.2-1.4s-.1-1.1-.3-1.6c-.3.4-.6 1.1-.6 2-.1.1-.1.2-.2.3"/><path class="st2" d="M38.4 27.8s-.5-.5-1.1-.8c.1.3.2.6.3.8.4.8 1 1.4 1.7 1.8.1-.1.3-.5.4-1 .1-.5.1-.9 0-1.5-.1-.5-.2-1-.5-1.6-.2.4-.5 1.1-.4 2 0 .1-.1.2-.1.2-.1.1-.3.1-.3.1"/><path class="st2" d="M35.8 24.5c.1.3.3.6.4.8.5.8 1.2 1.3 1.9 1.6.1-.1.2-.5.3-1.1 0-.5 0-1-.1-1.5s-.4-1-.7-1.5c-.2.4-.3 1.2-.2 2.1 0 .1 0 .2-.1.3-.1.1-.2 0-.3 0 .1-.1-.5-.6-1.2-.7"/><path class="st2" d="M34.1 22.2c.2.3.4.5.6.8.6.7 1.4 1.1 2.1 1.3.1-.2.2-.6.1-1.1 0-.5-.2-.9-.4-1.4s-.5-.9-.9-1.4c-.1.5-.1 1.2.1 2.1 0 .1 0 .2-.1.3-.1.1-.2.1-.3 0 .1-.2-.5-.6-1.2-.6"/><path class="st2" d="M33.8 20.3c-.1.1-.2.1-.3.1 0 0-.6-.2-1.3-.2h-.1l.7.7c.5.4 1.3.9 2.2.9 0-.2.1-.6-.1-1.1-.1-.5-.3-.9-.6-1.3s-.6-.8-1.1-1.2c0 .5.1 1.2.5 2 .1 0 .1.1.1.1m-23 37.4h.1c.1-1.3-.7-2.4-1.2-3-.1.6.1 1.3.1 1.3 0 .1 0 .2-.1.3s-.2.1-.3 0c-.8-.5-1.5-.6-2-.7.4.5.7.9 1.1 1.2.4.3.8.6 1.3.7.4.2.8.2 1 .2"/><path class="st2" d="M9.1 55.4s0-.1 0 0c.2-1-.1-1.9-.4-2.4-.1-.3-.3-.5-.5-.8-.1.7-.1 1.3-.1 1.3 0 .1 0 .2-.1.3s-.2 0-.3 0c-.7-.6-1.4-.8-1.9-.9.3.5.6 1 1 1.3.4.4.8.6 1.2.8.5.3.9.3 1.1.4"/><path class="st2" d="M7.5 52.9c.3-.8.2-1.6-.1-2.5-.1-.3-.2-.5-.4-.8-.2.6-.2 1.3-.2 1.4 0 .1-.1.2-.2.2s-.2 0-.3-.1c-.6-.6-1.1-.9-1.5-1-.1 0-.2-.1-.3-.1.2.5.5 1 .9 1.4.3.4.7.7 1.1 1 .4.3.8.4 1 .5"/><path class="st2" d="M6.2 50.2c.6-1.3.2-2.7-.1-3.3-.3.6-.4 1.3-.4 1.3 0 .1-.1.2-.2.2s-.2 0-.3-.1c-.5-.6-1-1-1.4-1.2-.1 0-.2-.1-.2-.1.6 2.4 2 3 2.6 3.2"/><path class="st2" d="M4.3 46.8c.4.4.8.5 1 .6.5-.8.6-1.7.4-2.5-.1-.3-.2-.6-.3-.8-.4.6-.5 1.3-.5 1.4 0 .1-.1.2-.2.2s-.2 0-.3-.1c-.5-.8-1.1-1.2-1.6-1.4.1.6.3 1.1.6 1.6.2.3.5.7.9 1"/><path class="st2" d="M4.4 44.5c1-1.3.9-2.6.8-3.3-.5.5-.7 1.2-.7 1.2 0 .1-.1.2-.2.2s-.2-.1-.2-.2c-.3-.7-.8-1.2-1.1-1.5l-.2-.2c-.1 2.6 1.1 3.5 1.6 3.8"/><path class="st2" d="M4.2 41.6c.5-.5.8-1 .9-1.8.1-.6.1-1.2 0-1.5-.5.5-.7 1.1-.7 1.2 0 .1-.1.2-.2.2s-.2-.1-.3-.2c-.2-.8-.6-1.3-.9-1.6l-.2-.2c-.2 2.4.9 3.5 1.4 3.9"/><path class="st2" d="M3.5 37.6c.2.4.5.7.7.8.6-.5.9-1.3 1.1-2.2 0-.3.1-.6.1-.9-.5.5-.8 1.1-.8 1.1 0 .1-.2.2-.3.1-.1 0-.2-.1-.2-.2-.2-.9-.7-1.5-1-1.8-.1.6-.1 1.2 0 1.7 0 .5.1.9.4 1.4"/><path class="st2" d="M3.8 34.5c.2.5.5.8.6.9.6-.6 1.1-1.3 1.3-2.2.1-.3.1-.5.1-.8-.5.4-.9 1-1 1-.1.1-.2.1-.3.1-.1 0-.2-.1-.2-.2-.2-.9-.6-1.5-.9-1.9-.1.6-.1 1.1-.1 1.7.1.5.3 1 .5 1.4"/><path class="st2" d="M4.8 32.5c.1 0 .1 0 0 0 .8-.5 1.3-1.2 1.6-2 .1-.3.1-.5.2-.8-.6.3-1.1.8-1.1.8-.1.1-.2.1-.3.1-.1 0-.2-.1-.2-.2-.1-.9-.4-1.6-.7-2-.2.6-.3 1.1-.3 1.6s.1 1 .2 1.4c.3.6.5 1 .6 1.1"/><path class="st2" d="M5.6 29.6c.9-.4 1.5-1 1.9-1.8.1-.2.2-.5.3-.8-.6.3-1.2.7-1.2.8-.1.1-.2.1-.3 0-.1 0-.2-.1-.1-.2 0-.9-.2-1.6-.4-2-.2.5-.4 1.1-.5 1.6s-.1 1 0 1.5c0 .4.2.7.3.9"/><path class="st2" d="M6.7 26.8c0 .1 0 .1 0 0 0 .1 0 .1 0 0 .8-.2 1.4-.7 2-1.5.2-.3.4-.6.5-.8-.7.1-1.3.6-1.3.6-.1.1-.2.1-.3 0-.1-.1-.2-.2-.1-.3.2-.9 0-1.6-.1-2.1-.3.5-.6 1-.7 1.5-.2.5-.2 1-.2 1.4 0 .7.1 1.1.2 1.2"/><path class="st2" d="M8.2 24.2c1.3-.2 2.2-1.3 2.7-2-.7.1-1.3.4-1.3.4-.1.1-.2.1-.3 0s-.1-.2-.1-.3c.3-.9.2-1.6.2-2.1-1.7 1.9-1.4 3.4-1.2 4"/><path class="st2" d="M10 21.8c.8 0 1.6-.5 2.1-.9.3-.2.5-.4.8-.7-.7 0-1.3.2-1.3.2-.1 0-.2 0-.3-.1s-.1-.2 0-.3c.4-.8.5-1.6.5-2-.5.4-.8.8-1.1 1.3-.3.4-.5.9-.6 1.3-.2.6-.2 1-.1 1.2-.1 0 0 0 0 0"/><path class="st2" d="M15.2 18.4c-.7-.1-1.3.1-1.3.1-.1 0-.2 0-.3-.1s-.1-.2 0-.3c.5-.8.6-1.5.7-2-2 1.4-2.1 2.9-2.1 3.5h.1c1.2.1 2.3-.7 2.9-1.2 0 .1 0 .1 0 0"/><path class="st2" d="M17.7 17.2c-.2-.1-.4-.1-.7-.1h-.7c-.1 0-.2-.1-.2-.2s0-.2.1-.3c.7-.6 1-1.1 1.2-1.5-2.3.8-2.8 2.1-2.9 2.7.2.1.5.1.9.1s1-.1 1.6-.3c.2-.1.5-.2.7-.4"/><path class="st2" d="M20.5 16.5c-.6-.3-1.3-.4-1.3-.4-.1 0-.2-.1-.2-.2s0-.2.1-.3c.8-.4 1.1-.8 1.3-1-1.2.2-2.1.6-2.7 1.2-.3.3-.5.6-.5.8.5.2 1.1.3 1.6.3.3 0 .6 0 .9-.1.2-.1.5-.2.8-.3"/><path class="st2" d="M22.3 15.7c-.1 0-.2-.1-.2-.3 0-.1.1-.2.2-.2.8-.2 1.2-.5 1.5-.7-1.2-.1-2.2.1-2.9.6-.4.2-.6.5-.7.7.8.6 1.8.7 2.6.7h.6c-.4-.6-1.1-.8-1.1-.8"/><path class="st2" d="M25.3 15.9c-.1-.1-.1-.2-.1-.3s.1-.2.2-.2c.8-.1 1.3-.3 1.6-.4-1.1-.3-2.1-.3-2.9 0-.4.2-.7.4-.8.5 1 1.2 2.3 1.4 3 1.4-.4-.6-.9-1-1-1m7.6 3.8c0-.3 0-.8-.2-1.3-.3-.9-1.1-1.5-2.1-1.9.1.4.4 1 .8 1.6.1.1.1.2 0 .3-.1.1-.2.1-.3.1 0 0-.6-.2-1.3 0 .7.4 1.9 1.2 3.1 1.2-.1 0 0 0 0 0"/><path class="st2" d="M30.5 17.8c-.6-.6-1.3-.9-2.2-.9-.3 0-.6.1-.9.2.7.5 1.4.8 2.2.8h.1c.3.1.6 0 .8-.1m-4.3-1.9c.5.3 1 .5 1.6.5.3 0 .5 0 .8-.1.5-.1.9-.2 1.2-.3-.4-.2-.9-.4-1.3-.5-.5-.1-.9-.1-1.4 0-.3.1-.6.3-.9.4"/><path class="st3" d="M39.6 39.2c0-3.1-.5-6-1.4-8.8-.9-2.7-2.1-5.1-3.7-7.2-1.6-2.1-3.4-3.7-5.4-4.8-2.1-1.2-4.3-1.8-6.6-1.8s-4.5.6-6.6 1.8c-2 1.1-3.9 2.8-5.4 4.8-1.6 2.1-2.8 4.5-3.7 7.2-.9 2.8-1.4 5.8-1.4 8.8h34.2z"/><path class="st4" d="M22.5 33.7h4l1.6-1.5-1.9-7.8-1.9-2.1-2.3-.4-2.8 1.3-1 1.9.9 1.4-1.7 3.2-.5 3.1.9.8z"/><path class="st5" d="M21.4 14.2zm-3.4.5zm0 0z"/><path class="st6" d="M26.9 66.6c-1.6-.3-2.8-1.2-3.3-1.7l-.2.2c.1.5.6 1.6 2.6 2.1.4-.2.7-.4.9-.6m-5.5-1.7c-.5.5-1.7 1.4-3.3 1.7.2.2.5.4.9.6 2-.5 2.5-1.7 2.6-2.1l-.2-.2"/><path class="st5" d="M42.7 43.5c0-.1 0-.2-.1-.3s-.2-.1-.2-.1c.1-.1.1-.3.2-.5.3-.7.4-1.5.4-2.4 0-.1-.1-.2-.2-.3-.1 0-.2-.1-.2-.1.1-.1.1-.3.1-.4.2-.7.2-1.5.2-2.4 0-.1-.1-.2-.2-.3-.1 0-.2-.1-.2 0 0-.2.1-.3.1-.5.1-.7.1-1.5-.1-2.4 0-.1-.1-.2-.2-.3h-.2c0-.1 0-.2.1-.4.1-.7 0-1.5-.2-2.4 0-.1-.1-.2-.2-.2h-.3v-.6c0-.7-.2-1.5-.5-2.3 0-.1-.1-.2-.3-.2-.1 0-.2 0-.3.1V27c-.1-.7-.4-1.5-.8-2.3-.1-.1-.2-.2-.3-.2s-.2 0-.3.1c0-.2-.1-.3-.1-.5-.2-.7-.5-1.4-1-2.2-.1-.1-.2-.2-.3-.2s-.2.1-.3.2c-.1-.2-.1-.4-.2-.6-.3-.7-.8-1.3-1.4-2-.1-.1-.2-.1-.3-.1s-.2.1-.2.1l-.3-.6c-.4-.6-.9-1.2-1.6-1.7-.1-.1-.2-.1-.3-.1s-.2.1-.2.2c-.5-.6-1.1-1.1-1.9-1.3h.4c1 .1 1.6-.1 1.7-.2.2-.1.3-.3.3-.5s-.2-.4-.4-.4c-1.1-.1-1.4-.3-1.9-.5-.1-.1-.2-.1-.3-.2l2.5-.4c.2 0 .4-.2.4-.4s-.2-.4-.4-.4l-2.4-.4c.3-.1.6-.2 1-.3.9-.3 1.5-.8 1.5-.8.2-.1.2-.4.1-.6-.1-.2-.3-.3-.5-.2-1 .4-1.4.3-2 .2h-.3l2.1-1.3c.2-.1.3-.3.2-.5-.3.2-.5.1-.8.1l-2.4.6c.3-.1.5-.3.8-.6.7-.6 1.1-1.3 1.1-1.3.1-.2.1-.4-.1-.6-.2-.1-.4-.1-.6 0-.8.7-1.2.8-1.8 1-.1 0-.2.1-.3.1l1.5-2c.1-.2.1-.4 0-.6-.2-.2-.4-.2-.6 0l-2 1.5c.1-.3.3-.6.5-.9.4-.9.5-1.6.5-1.6 0-.2-.1-.4-.3-.5-.2-.1-.4 0-.5.2-.4 1-.8 1.2-1.2 1.6-.1.1-.2.1-.2.2l.6-2.4c.1-.2-.1-.4-.3-.5-.2-.1-.4 0-.5.2L25 5.5c0-.3.1-.6.1-1-.1-.8-.3-1.5-.3-1.5-.1-.2-.3-.3-.5-.3s-.4.2-.4.4c0 1.1-.3 1.4-.5 1.9 0 .1-.1.2-.1.3l-.4-2.4c0-.2-.2-.4-.4-.4s-.4.2-.4.4l-.3 2.4-.3-.9c-.3-.9-.8-1.5-.8-1.5-.1-.2-.4-.2-.6-.1-.2.1-.3.3-.2.5.4 1 .3 1.4.2 2v.3l-1.3-2.1c-.1-.2-.3-.3-.5-.2s-.3.3-.3.5l.6 2.4c-.2-.2-.4-.5-.6-.7-.6-.7-1.3-1.1-1.3-1.1-.2-.1-.4-.1-.6.1-.1.2-.1.4 0 .6.7.8.8 1.2 1 1.8 0 .1.1.2.1.3l-2-1.5c-.2-.1-.4-.1-.6 0-.2.2-.2.4 0 .6l1.5 2c-.3-.1-.6-.3-.9-.5-.9-.4-1.6-.5-1.6-.5-.2 0-.4.1-.5.3-.1.2 0 .4.2.5 1 .4 1.2.8 1.6 1.2.1.1.1.2.2.3L12.8 9c-.2-.1-.4.1-.5.3s0 .4.2.5l2.1 1.3c-.3 0-.6-.1-1-.1-1-.1-1.6.1-1.7.2-.2.1-.3.3-.3.5s.2.4.4.4c1.1 0 1.4.3 1.9.5.1 0 .2.1.3.2l-2.5.4c-.2 0-.4.2-.4.4s.2.4.4.4l2.5.4c-.3.1-.6.2-1 .3-.9.3-1.5.8-1.5.8-.2.1-.2.4-.1.6.1.2.3.3.5.2.6-.2 1-.3 1.3-.3-.5.5-.9.8-1.1 1.1-.1.1-.2.3-.3.4 0-.1-.1-.1-.2-.1s-.2 0-.3.1c-.7.5-1.3 1.1-1.7 1.7l-.3.6-.2-.2c-.1 0-.2 0-.3.1-.6.6-1.1 1.3-1.4 2-.1.2-.1.4-.2.5-.1-.1-.1-.1-.2-.1s-.2 0-.3.1c-.5.7-.9 1.4-1.1 2.1-.1.2-.1.4-.1.6-.1-.1-.2-.1-.3-.1-.1 0-.2.1-.3.2-.4.8-.7 1.5-.8 2.3v.5c-.1-.1-.2-.1-.3-.1-.1 0-.2.1-.2.2-.3.8-.5 1.6-.5 2.3v.5c-.1-.1-.2-.1-.3 0-.1 0-.2.1-.2.2-.2.9-.3 1.7-.2 2.4 0 .1 0 .3.1.4h-.2c-.1 0-.2.1-.2.3-.2.9-.2 1.7-.1 2.4 0 .2.1.4.1.5h-.1c-.1.1-.2.2-.2.3-.1.9-.1 1.7.1 2.4 0 .2.1.3.1.5-.1 0-.2 0-.2.1.1-.1 0 0 0 .1 0 .9.1 1.7.3 2.4.1.2.1.4.2.6-.1 0-.2 0-.3.1s-.1.2-.1.3c.1.9.4 1.6.7 2.3.1 0 .2.2.2.3-.1 0-.1 0-.2.1s-.1.2-.1.3c.2.9.5 1.6.9 2.2.1.1.2.3.3.4-.1 0-.2.1-.2.1-.1.1-.1.2 0 .3.3.8.7 1.5 1.2 2.1.1.2.2.3.3.5-.1 0-.2.1-.2.2-.1.1-.1.2 0 .3.4.8.9 1.4 1.4 2l.3.3c-.1 0-.1.1-.2.2v.3c.5.7 1 1.3 1.6 1.8.2.1.4.3.5.4h-.1c-.1 0-.2.1-.2.2s0 .2.1.3c.6.6 1.2 1.1 1.9 1.5.5.3 1 .5 1.5.6.4.1.9.1 1.2 0h.1c1.1.8 2.2 1.4 3.4 1.9 1 .4 2 .7 3 1 .2 0 .4.1.6.1-.4-.2-.2-.4-.5-.7-.1-.1-.7-.2-.8-.2-.7-.2-1.4-.4-2.1-.7-1.1-.5-2.2-1.1-3.3-1.8 0-.4 0-.7-.1-1.1.7.6 1.4 1.1 2.1 1.5 1 .6 2 1 3.1 1.3 0-.1.4-.1.4-.2 0-.2-.3-.4-.2-.5-1-.3-1.9-.7-2.9-1.2-2-1.1-3.8-2.7-5.3-4.7-.5-.7-1-1.5-1.5-2.2 1.2-.5 3.8-1.7 6.1-2.9 0 .1 0 .2.1.3.2.5.7.6 1.1.7h.4c.1.4.5.6 1 .8.2.1.4.1.5.1.1.2.2.4.4.5.5.3 1.1.3 1.4.2.2.2.5.4.8.5h.3c.2 0 .5-.1.7-.1v4.1c0 .3.2.5.5.5s.5-.2.5-.5v-4.3c.5.1 1 0 1.3-.1l.6-.3c.5.1 1-.1 1.4-.4.1-.1.2-.3.3-.4.7 0 1.2-.3 1.4-.6.1-.1.2-.3.3-.4.5 0 .8-.2 1.1-.4.1-.1.2-.3.3-.4 1.9 1.4 4.8 2.7 6.1 3.3-.4.7-.9 1.4-1.4 2.1-1.5 2-3.3 3.6-5.3 4.7-.9.5-1.9.9-2.9 1.2.1.1-.2.3-.1.5 0 .1.3.2.3.2 1.1-.3 2.1-.7 3.1-1.3.8-.4 1.5-1 2.2-1.5-.1.4-.1.7-.1 1.1v.1c-.3.2-1.2.9-2.4 1.5-.9.5-1.9.8-2.9 1.1H26c0 .1-.5.1-.6.2-.3.4-.3.6-.7.7.5-.1 1.1-.2 1.6-.3 1-.3 2-.6 3-1.1 1.3-.6 2.2-1.3 2.5-1.5h.1c.4.1.8.1 1.2 0 .5-.1 1-.3 1.5-.6.6-.4 1.2-.9 1.9-1.5.1-.1.1-.2.1-.3s-.1-.2-.2-.2h-.1c.2-.1.4-.2.6-.4.6-.5 1.1-1.1 1.6-1.8.1-.1.1-.2 0-.3 0-.1-.1-.1-.2-.2l.3-.3c.5-.5 1-1.2 1.4-2 .1-.1 0-.2 0-.3-.1-.1-.1-.2-.3-.2.1-.1.2-.3.4-.4.5-.6.9-1.3 1.2-2.1v-.3c-.1-.1-.2-.1-.3-.2.1-.1.2-.3.3-.4.4-.6.7-1.4.9-2.2 0-.1 0-.2-.1-.3s-.2-.1-.3-.1c.1-.2.2-.3.3-.5.3-1.1.5-1.8.6-2.7m-.4-2.7c0 .6-.1 1.2-.3 1.6-.2.5-.4.9-.7 1.3-.4.4-.7.6-.9.7-.5-.7-.7-1.5-.7-2.4 0-.3 0-.6.1-.9.4.5.7 1.2.7 1.2 0 .1.1.2.2.2s.2-.1.2-.1c.5-.8 1-1.4 1.4-1.6m0-3.1c0 .6 0 1.2-.1 1.7s-.3 1-.6 1.3c-.3.5-.7.7-.8.8-.8-1-.9-2.4-.9-3.1.5.5.8 1.1.8 1.1 0 .1.1.2.2.1.1 0 .2-.1.2-.2.3-.9.8-1.4 1.2-1.7m-.4-3.2c.1 0 .1 0 0 0 .1.6.1 1.2 0 1.7s-.2 1-.5 1.4c-.3.5-.6.8-.7.9-.8-.7-1.1-2.2-1.2-3 .5.4.8 1 .8 1 .1.1.2.1.3.1s.2-.1.2-.2c.4-1 .8-1.6 1.1-1.9m-.5-3c.1 0 .1 0 0 0 .1.6.2 1.2.1 1.7s-.2 1-.4 1.4c-.2.5-.5.8-.7.9-.7-.6-1-1.5-1.2-2.1-.1-.3-.1-.6-.2-.9.5.4.9 1 .9 1 .1.1.2.1.3.1s.2-.1.2-.2c.3-.9.7-1.6 1-1.9m-24 .2v-.1c.4-2.1 1.2-3.5 1.8-4.3.5-.6.9-1 1.1-1.2.1 0 .1-.1.2-.2.2-.2.2-.5.1-.7-.2-.2-.5-.3-.7-.1l-.2.2c-.5.3-.7.2-.8.2-.1-.1-.2-.3-.2-.5.1-.4.6-1 .8-1.2 1-1.2 2.6-1.2 2.7-1.2 0 0 .5 0 1.1.2.9.3 1.5.9 2 1.8.6 1.2 1.1 2.5 1.5 3.8-.9-.3-1.6-.9-1.6-.9-.2-.2-.5-.1-.7.1-.1.1-.1.2-.1.4 0 .1.1.2.2.3 0 0 1.2 1 2.5 1.3.1.5.2.9.3 1.5-.4-.2-.9-.4-1.4-.5-.3-.1-.6-.1-.8-.2-.9-.4-1.7-1-1.7-1-.2-.4-.5-.4-.6-.2-.2.2-.1.5.1.7 0 0 .9.7 2 1.1l.9.3c1.2.3 1.7.5 1.7 1.1 0 .1-.1.2-.1.2-.4.4-1.2.4-1.5.4h-1.1c-.2 0-1.3-.1-2.3-.7-2.7-1.5-3.8-1.2-5.2-.6m4.3 1.4h-3.4c-.3 0-.6-.1-.7-.3l-.1-.1c1.4-.6 2.1-.8 4.2.4m1.3 6.1v-5.1h2.8c.1 0 .4 0 .6-.1.6-.1 1.1-.3 1.4-.7.1-.1.3-.4.4-.6v-.1c.1-.2.1-.5 0-.9v-.1c-.3-2-.7-4.6-2.2-7.6-1.3-2.6-3.8-2.5-4-2.4-.2 0-2.1.1-3.3 1.5-.1.1-.9.9-1 1.7-.1.6.1 1.2.6 1.5.1 0 .2.1.3.1-.8 1-1.7 2.6-2.2 5-.1.4-.1.8-.1 1.1v.1c.1.4.2.7.4.9.2.3.7.6 1.5.6h3.6v8.2c-1 0-1.7.3-2.6 1-1.3.9-5.6 1.7-12.8 2.5-.5-2.1-.8-4.4-.8-6.6 0-3 .4-5.9 1.3-8.7.8-2.6 2.1-5 3.6-7.1 1.5-2 3.3-3.6 5.3-4.7 2.1-1.1 4.2-1.7 6.5-1.7 2.2 0 4.4.6 6.5 1.7 2 1.1 3.8 2.7 5.3 4.7s2.8 4.4 3.6 7.1c.9 2.7 1.3 5.7 1.3 8.7 0 2.3-.3 4.6-.8 6.7-4.2-.2-9.4-1.9-9.5-1.9-.4-.1-.7-.2-1-.4-1.1-.4-1.9-.7-2.8-.6h-.2c-.5-.3-1-.4-1.7-.6v-3.2zM29.9 16c-.3.1-.7.2-1.2.3-.3.1-.6.1-.8.1-.6 0-1.2-.2-1.6-.5.2-.1.5-.3 1-.4.5-.1.9-.1 1.4 0 .3.1.7.2 1.2.5m.6 1.8c-.2.1-.5.2-.8.2h-.1c-.8 0-1.5-.3-2.2-.8.3-.1.6-.2.9-.2.9-.1 1.6.2 2.2.8M27 15c-.3.1-.8.3-1.6.4-.1 0-.2.1-.2.2s0 .2.1.3c0 0 .6.4 1 1-.7 0-2.1-.2-3-1.4.2-.1.4-.4.8-.5.8-.3 1.8-.3 2.9 0m-3.2-.5c-.3.2-.7.5-1.5.7-.1 0-.2.1-.2.2s.1.2.2.3c0 0 .6.2 1.2.7h-.6c-.8 0-1.8-.1-2.6-.7.1-.2.3-.4.7-.7.6-.4 1.6-.6 2.8-.5 0-.1 0-.1 0 0m-3.3 0c-.2.3-.6.6-1.3 1-.1 0-.2.2-.1.3 0 .1.1.2.2.2 0 0 .7.1 1.3.4-.3.1-.6.2-.9.2s-.6.1-.9.1c-.5 0-1-.1-1.6-.3.1-.2.2-.5.5-.8.6-.5 1.6-.9 2.8-1.1m-4.3 2.1c-.1.1-.1.2-.1.3 0 .1.1.2.2.2h.7c.3 0 .5.1.7.1-.3.1-.5.3-.8.4-.6.2-1.1.3-1.6.3-.4 0-.7-.1-.9-.1.1-.5.6-1.9 2.9-2.7-.1.3-.4.9-1.1 1.5m23.6 13.8c.1-.9.4-1.6.6-2 .2.6.3 1.1.3 1.6s0 1-.2 1.4c-.2.5-.4.9-.5 1-.7-.4-1.2-1.1-1.5-1.9-.1-.3-.2-.6-.3-.8.6.3 1.1.9 1.1.9.1.1.2.1.3.1.2-.1.2-.2.2-.3m-1-2.8c0-.9.2-1.6.4-2 .2.5.4 1.1.5 1.6s.1 1 0 1.5-.3.9-.4 1c-.7-.3-1.3-.9-1.7-1.8-.1-.3-.2-.5-.3-.8.6.3 1.1.7 1.1.8.1.1.2.1.3 0 0-.1.1-.2.1-.3m-1.4-2.5c.1-.1.1-.2.1-.3-.1-.9 0-1.6.2-2.1.3.5.5 1 .7 1.5.1.5.2 1 .1 1.5s-.2.9-.3 1.1c-.8-.3-1.4-.8-1.9-1.6-.2-.2-.3-.5-.4-.8.7.2 1.2.6 1.3.6-.1.2.1.2.2.1m-2-2.5c.1.1.2.1.3 0s.1-.2.1-.3c-.3-.8-.2-1.6-.1-2.1.4.5.7.9.9 1.4s.3 1 .4 1.4c0 .5-.1.9-.1 1.1-.8-.1-1.5-.6-2.1-1.3-.2-.2-.4-.5-.6-.7.6.1 1.2.5 1.2.5m-1.9-2.2c.1 0 .2 0 .3-.1s.1-.2 0-.3c-.4-.8-.5-1.5-.5-2 .4.4.8.8 1.1 1.2.3.4.5.9.6 1.3.1.5.1 1 .1 1.1-.9 0-1.7-.5-2.2-.9-.3-.2-.5-.4-.7-.7h.1l1.2.4m-.8-2c.2.5.2 1 .2 1.3h-.1c-1.1 0-2.3-.7-3-1.2.7-.1 1.3 0 1.3 0 .1 0 .2 0 .3-.1.1-.1.1-.2 0-.3-.4-.5-.7-1.1-.8-1.6 1 .4 1.8 1 2.1 1.9m-19.3-3.1c.1 0 .1 0 .2-.1.6-.2 1.2-.4 1.5-.4.7-.2 1.2-.5 1.2-.5.1 0 .1-.1.1-.2s-.1-.1-.1-.1l-3.1-.4 3.1-.5c.1 0 .2-.1.2-.2s-.1-.2-.2-.2c0 0-.7-.1-1.4-.4-.2-.1-.4-.2-.5-.3-.3-.1-.5-.3-.9-.4h.2c.7 0 1.3.1 1.6.2.7.1 1.3 0 1.3 0 .1 0 .1-.1.1-.1 0-.1 0-.1-.1-.2l-2.7-1.6 3 .8c.1 0 .2 0 .2-.1s0-.2-.1-.2c0 0-.6-.3-1.1-.9-.1-.2-.3-.3-.4-.5-.2-.2-.4-.5-.7-.7.1 0 .1 0 .1.1.6.3 1.1.6 1.4.8.6.4 1.2.5 1.2.5.1 0 .1 0 .2-.1v-.2l-1.9-2.5 2.5 1.8c.1.1.2 0 .2 0 .1-.1.1-.2 0-.2 0-.1-.4-.6-.7-1.3-.1-.2-.1-.4-.2-.6l-.3-.9.1.1c.4.5.8 1 1 1.2.4.6.8.9.9.9h.2c.1 0 .1-.1.1-.2l-.8-3 1.6 2.7c0 .1.1.1.2.1s.1-.1.1-.2c0 0-.2-.7-.1-1.4v-.6c0-.3.1-.6 0-1 0 .1 0 .1.1.2.2.6.4 1.2.4 1.5.1.7.4 1.1.5 1.2 0 .1.1.1.2.1.2.1.2 0 .2-.1l.4-3 .4 3c0 .1.1.2.2.2s.2-.1.2-.2c0 0 .1-.7.4-1.4.1-.2.2-.4.3-.5.1-.3.3-.5.4-.9v.2c0 .7-.1 1.3-.2 1.6-.1.7 0 1.3 0 1.3 0 .1.1.1.1.1.1 0 .1 0 .2-.1L26 4.8l-.8 3c0 .1 0 .2.1.2s.2 0 .2-.1.4-.6.9-1.1c.2-.1.3-.3.5-.4.2-.2.5-.4.7-.7 0 0 0 .1-.1.1-.3.6-.6 1.1-.8 1.4-.4.6-.5 1.2-.5 1.2 0 .1 0 .1.1.2h.2L29 6.7l-1.8 2.5c-.1.1 0 .2 0 .2.1.1.2.1.2 0 0 0 .5-.4 1.3-.7.2-.1.4-.1.6-.2l.9-.3-.1.1c-.5.4-1 .8-1.2 1-.6.4-.9.9-.9.9v.2c0 .1.1.1.2.1l3-.8-2.7 1.6c-.1 0-.1.1-.1.2s.1.1.2.1.7-.2 1.4-.1h.6c.3 0 .6.1 1 0-.1 0-.1 0-.2.1-.6.2-1.2.4-1.5.4-.7.2-1.2.5-1.2.5-.1 0-.1.1-.1.2s.1.1.1.1l3.1.4-3 .8c-.1 0-.2.1-.2.2s.1.2.2.2.7.1 1.4.4c.2.1.4.2.5.3.3.1.5.3.9.4h-.2c-.7 0-1.3-.1-1.6-.2h-.1c-.6-.2-1.1-.4-1.7-.4 0-.1-.1-.2-.2-.3-.8-.3-1.6-.4-2.3-.4-.3 0-.5 0-.7.1v-.1c-.1-.1-.2-.2-.3-.2-.9-.1-1.7-.1-2.4 0-.3.1-.5.1-.8.2 0-.1 0-.1-.1-.2s-.2-.1-.3-.1c-.9.1-1.7.3-2.3.5-.2.1-.3.2-.5.2 0-.1-.1-.2-.1-.2-.1-.1-.2-.1-.3-.1-.9.2-1.6.6-2.2 1h-1.1c-.4 0-.7-.1-1 0m.8.8s0 .1 0 0c0 .5-.1 1.2-.6 2-.1.1-.1.2 0 .3.1.1.2.1.3.1 0 0 .7-.1 1.3-.1-.6.5-1.7 1.2-2.9 1.2h-.1c-.1-.5 0-2 2-3.5M10 20.6c.1-.5.3-.9.6-1.3s.7-.9 1.1-1.3c0 .5-.1 1.2-.5 2v.3c.1.1.2.1.3.1 0 0 .6-.2 1.3-.2-.3.2-.5.5-.8.7-.5.4-1.3.9-2 .9h-.1c0-.2 0-.6.1-1.2m-.7-.3c.1.5.2 1.2-.1 2.1 0 .1 0 .2.1.3.1.1.2.1.3 0 0 0 .6-.4 1.3-.4-.5.7-1.4 1.8-2.7 2-.2-.7-.5-2.2 1.1-4m-2.7 4c.2-.5.4-1 .7-1.5.1.4.3 1.2.1 2.1 0 .1 0 .2.1.3.1.1.2 0 .3 0 0 0 .5-.5 1.3-.6-.1.2-.3.5-.5.8-.6.8-1.2 1.3-2 1.5-.1-.1-.2-.5-.3-1.1l.3-1.5m-1.5 2.8c.1-.5.2-1 .5-1.6.2.4.5 1.1.4 2 0 .1.1.2.1.2h.3s.6-.5 1.2-.8c-.1.3-.2.5-.3.8-.4.8-1 1.4-1.8 1.8-.1-.2-.3-.5-.4-1v-1.4m-.7 1.3c.3.4.6 1 .7 2 0 .1.1.2.2.2s.2 0 .3-.1c0 0 .5-.6 1.1-.9 0 .3-.1.5-.2.8-.3.9-.8 1.6-1.6 2-.1-.1-.4-.5-.5-1-.2-.4-.2-.9-.2-1.4-.1-.5 0-1 .2-1.6m-.9 3.1c0-.1 0-.1 0 0 0-.1 0-.1 0 0 .3.4.8 1 .9 1.9 0 .1.1.2.2.2s.2 0 .3-.1c0 0 .4-.6 1-1 0 .3-.1.5-.1.8-.2.9-.6 1.6-1.3 2.2-.2-.2-.5-.5-.7-1-.2-.4-.3-.9-.4-1.4-.1-.5 0-1.1.1-1.6m-.5 3c.4.3.8.9 1 1.8 0 .1.1.2.2.2s.2 0 .3-.1c0 0 .3-.6.8-1.1 0 .3 0 .6-.1.9-.2.9-.5 1.7-1.1 2.2-.1-.1-.4-.4-.6-.8s-.4-.9-.5-1.4c-.1-.5-.1-1.1 0-1.7m-.3 3.2s.1 0 0 0c.1 0 .1 0 0 0 .1 0 .2.1.2.2.3.3.7.8.9 1.6 0 .1.1.2.3.2.1 0 .2-.1.2-.2 0 0 .1-.7.7-1.2.1.4.1.9 0 1.5-.1.7-.4 1.3-.9 1.8-.4-.4-1.5-1.5-1.4-3.9m-.1 3.1c.1.1.2.1.2.2.3.3.8.8 1.1 1.5 0 .1.1.2.2.2s.2-.1.2-.2c0 0 .3-.7.7-1.2.1.7.2 1.9-.7 3.3-.4-.4-1.6-1.3-1.7-3.8m.2 3.2c.5.2 1.1.6 1.6 1.4.1.1.2.1.3.1.1 0 .2-.1.2-.2 0 0 .2-.8.5-1.4.1.3.2.5.3.8.2.9 0 1.7-.4 2.5-.2-.1-.6-.2-1-.6-.4-.3-.7-.7-.9-1.2-.3-.2-.5-.8-.6-1.4m.7 3c.1 0 .2.1.3.1.4.2.9.5 1.4 1.2.1.1.2.1.3.1.1 0 .2-.1.2-.2 0 0 .1-.7.4-1.3.3.7.7 2 .1 3.3-.6-.2-2-.8-2.7-3.2m1.8 4.5c-.3-.4-.6-.9-.9-1.4.1 0 .2.1.3.1.4.1 1 .4 1.5 1 .1.1.2.1.3.1.1 0 .2-.1.2-.2 0 0 0-.7.2-1.4.1.3.3.5.4.8.3.9.4 1.7.1 2.5-.2 0-.6-.1-1.1-.4-.3-.4-.6-.7-1-1.1m.5 1.4c.5.1 1.2.3 1.9.9.1.1.2.1.3 0s.1-.2.1-.3c0 0-.1-.7.1-1.3.2.3.3.5.5.8.3.6.6 1.5.4 2.4-.2 0-.6-.1-1.1-.3-.4-.2-.8-.5-1.2-.8-.4-.4-.7-.9-1-1.4m5.9 5.2s-.3-.6-.3-1.3c.6.5 1.6 1.6 1.5 3h-.4c-.2 0-.4 0-.6-.1-.9-.2-1.8-.7-2.7-1.5.5-.1 1.2-.1 2.1.3.1 0 .2 0 .3-.1.2-.1.2-.2.1-.3m-2.3-1.9c.1.1.2.1.3 0s.1-.2.1-.3c0 0-.2-.6-.1-1.3.5.6 1.3 1.8 1.2 3h-.1c-.2 0-.6 0-1-.2-.4-.1-.9-.4-1.3-.7-.4-.3-.8-.7-1.1-1.2.5.1 1.2.2 2 .7m10.1-6.8c-.1.1-.2.1-.2.2-.6.4-.9.8-1 1.2-.1 0-.1 0-.2-.1-.4-.1-.4-.4-.5-.4 0-.2.1-.4.4-.7.4-.4.7-.5 1-.5.1 0 .2 0 .3.1.1 0 .2.1.2.2m.5 2.2c-.2 0-.6.1-.9-.1-.1 0-.1-.1-.1-.2 0-.4.4-.7.7-.9.4-.3.7-.5 1-.5.1 0 .2 0 .3.1.1.1.1.1.1.2s-.2.3-.3.4c-.3.3-.6.6-.8 1m2.2.1c-.2.1-.7.5-1.1.4-.1 0-.2 0-.3-.1.2-.4.6-.7 1-.9.5-.3.7-.1.7-.1.1.1.1.2.1.2 0 .1-.2.4-.4.5.1-.1.1-.1 0 0m-4.6-2.9l-.2.2c-.3.2-.5.5-.6.9h-.2c-.3 0-.4-.1-.5-.2 0 0-.1-.2.1-.4.2-.3.7-.6 1.1-.6h.1c.1.1.2.1.2.1m11.1.6c-.1.1-.3.2-.6.2-.4-.5-1.3-1.6-2.5-2.2-.1-.1-.2-.1-.3 0-.1 0-.2.1-.2.2-.1.1-.1.2 0 .3 0 .1.1.2.2.2 1 .5 1.8 1.5 2.2 1.9 0 .1-.1.1-.1.2-.2.2-.4.3-.7.3-.1-.2-.3-.5-.6-.8-.4-.4-1.1-.9-1.1-1-.1-.1-.2-.1-.3-.1-.1 0-.2.1-.3.2-.1.1-.1.2-.1.3s.1.2.2.3c.2.1.7.5 1 .8s.4.5.4.6-.1.2-.2.3c-.2.1-.3.2-.6.2-.1-.2-.4-.7-.8-1.2-.2-.2-.4-.2-.6 0-.1.1-.1.2-.1.3s0 .2.1.3c.3.3.5.7.6.9-.1 0-.1.1-.2.1-.2.1-.5.1-.7.1.1-.2.2-.3.2-.5s0-.6-.4-1c-.2-.2-.6-.4-1-.3 0-.3-.2-.5-.4-.7-.4-.3-.9-.4-1.4-.3-.1-.2-.3-.5-.7-.7-.4-.2-.8-.2-1.2-.1-.4-.3-.8-.4-.9-.4-.6-.1-1.3.2-1.8.7-2.5 1.3-5.6 2.7-6.9 3.3-.7-1.3-1.3-2.6-1.7-4.1-.2-.3-.3-.7-.4-1.1 3.6-.4 6.5-.8 8.7-1.3 2.2-.4 3.7-.9 4.4-1.4.8-.6 1.4-.9 2.2-.8.2 0 .4 0 .5.1-.2.1-.3.1-.4.2-.3.2-.5.4-.7.6-.2.2-.3.3-.6.4l-.6.3c-.5.2-.9.4-1 .8-.1.4-.1.7.2 1.1.4.5 1 .5 1.5.5.6 0 1.3-.2 1.8-.5.2-.1.3-.2.5-.3s.4-.3.5-.3c.4-.1.9-.1 1.5.2.5.2 1 .5 1.5.8 1.1.7 2 1.7 2.2 2-.1.1-.1.2-.3.4m1.6-.4c-.4-.3-.6-.5-.8-.7l-.1-.1c-.4-.5-1.2-1.4-2.3-2.1-.8-.5-2.3-1.5-3.7-1.1-.3.1-.5.2-.8.4-.1.1-.3.2-.4.3-.4.3-1 .4-1.4.4s-.7 0-.8-.1v-.1c.1-.1.4-.3.6-.3.2-.1.5-.2.7-.4.3-.2.5-.3.6-.5.2-.1.4-.3.7-.5.4-.3.9-.3 1.6-.3h.6c.8 0 1.5.2 2.5.6.3.1.6.2 1 .4.1 0 1.5.5 3.4.9 1.7.4 4.1.9 6.4 1-.1.4-.2.7-.3 1.1-.5 1.5-1.1 2.9-1.8 4.2-1.1-.5-3.9-1.7-5.7-3.1m5.4 9.2c-1.1 1-2.1 1.4-2.7 1.5-.2 0-.4.1-.6.1H32c0-.8.3-1.6.9-2.3.2-.2.4-.4.7-.6-.1.7-.3 1.3-.3 1.3 0 .1 0 .2.1.3s.2.1.3.1c.7-.5 1.5-.5 2-.4m1.9-2.6c-.4.5-.7.9-1.1 1.2-.4.3-.8.6-1.3.7-.4.1-.8.2-1 .2h-.1c-.1-.8.2-1.5.7-2.3.2-.2.3-.5.5-.7.1.7-.1 1.3-.1 1.4 0 .1 0 .2.1.3s.2.1.3 0c.8-.7 1.5-.8 2-.8m.6-1.4c-.4.4-.8.6-1.2.8-.5.2-.9.3-1.1.3-.1-.8 0-1.6.4-2.4.1-.3.3-.5.5-.8.1.7.1 1.4.1 1.4 0 .1 0 .2.1.3h.3c.7-.6 1.4-.8 1.9-.9-.3.5-.6 1-1 1.3m1.5-2.7c-.3.4-.7.7-1.1 1-.5.3-.9.4-1.1.4-.2-.8-.2-1.6.1-2.5.1-.3.2-.5.4-.8.2.7.2 1.3.2 1.3 0 .1.1.2.2.2s.2 0 .3-.1c.6-.6 1.1-.9 1.5-1 .1 0 .2-.1.3-.1-.2.6-.5 1.1-.8 1.6m1-3c-.3.4-.6.8-1 1.1s-.9.5-1 .5c-.4-.9-.3-1.8-.1-2.5l.3-.9c.3.6.4 1.4.4 1.4 0 .1.1.2.2.2s.2 0 .3-.1c.6-.7 1.2-1.1 1.7-1.3-.2.7-.5 1.2-.8 1.6m.9-3c-.2.5-.5.9-.9 1.2-.4.4-.8.5-.9.6-.4-.7-.5-1.5-.4-2.5 0-.3.1-.6.2-.9.4.6.5 1.3.5 1.4 0 .1.1.2.2.2s.2 0 .3-.1c.5-.8 1.1-1.2 1.5-1.5-.1.6-.3 1.1-.5 1.6"/><path class="st5" d="M23.6 11c3-.5 3.3.4 3.3.4s.1.2.3.1c0 0 .2 0 .1-.3 0 0-.3-1-1.9-1.1 0 0-.8-.1-1.7 0-.3 0-.3.6-.3.6-.1.3.2.3.2.3m-2.6.5c-.4-.2-1.2-.1-1.2-.1-1.3 0-1.7.9-1.7.9-.1.3.1.3.1.3.3.1.4-.2.4-.2s.1-.2.6-.4v.3c0 .4.3.7.7.7.4 0 .7-.3.7-.7 0-.1 0-.2-.1-.3.2.1.4.2.5.4 0 .1.2.1.4.1.3 0 .2-.2.2-.2-.1-.6-.6-.8-.6-.8m2.5 1.1c.3 0 .4 0 .4-.1.1-.2.3-.4.5-.4 0 .1-.1.2-.1.3 0 .4.3.7.7.7.4 0 .7-.3.7-.7v-.3c.6.1.6.4.6.4s.1.2.4.2c0 0 .2 0 .1-.3 0 0-.4-.8-1.7-.9 0 0-.8 0-1.2.1 0 0-.4.2-.6.9 0 0-.1.1.2.1m-5.8-1.1c.2.1.3-.1.3-.1s.3-.9 3.3-.4c0 0 .3.1.2-.2 0 0-.1-.6-.3-.6-.9-.2-1.7 0-1.7 0-1.6.2-1.9 1.1-1.9 1.1-.1.2.1.2.1.2"/><path class="st3" d="M24 64.2v-.7c.5-.1 1.4-.4 1.9-1 .3-.3.4-.8.4-1.2s-.2-.7-.6-.9c-.9-.6-2.7-.2-3.2 0-.5-.1-2.3-.6-3.2 0-.3.2-.5.5-.6.9-.1.5.1.9.4 1.2.5.6 1.4.9 1.9 1v.7c-.4.4-1.7 1.5-3.5 1.7.1.1.2.4.5.6 1.6-.3 2.8-1.2 3.3-1.7l.2.2c-.1.5-.6 1.6-2.6 2.1.3.2.7.3 1.2.3 1.4-.6 1.9-1.6 2.1-2.2h.6c.2.6.7 1.5 2.1 2.2.5-.1.9-.2 1.2-.3-2-.5-2.5-1.7-2.6-2.1l.2-.2c.5.5 1.7 1.4 3.3 1.7.3-.3.5-.6.5-.6-1.9-.2-3.1-1.3-3.5-1.7zm-3.5-2.6c-.1.4-.1.8.1 1.1-.4-.1-.7-.3-.9-.6-.2-.2-.2-.4-.2-.7 0-.2.1-.3.3-.4.2-.1.5-.2.9-.2h.5c-.4.2-.6.4-.7.8zm2 3.1c-.4 0-.8-.4-.8-.8s.4-.8.8-.8.8.4.8.8-.4.8-.8.8zm1-2c-.3-.2-.6-.4-1-.4s-.7.1-1 .4c-.2-.2-.4-.6-.3-.9.3-.7 1.3-.7 1.3-.7s.3 0 .6.1c.4.1.6.3.7.6.1.3-.1.7-.3.9zm1.8-1.7c.1.1.2.2.3.4 0 .3 0 .5-.2.7-.2.3-.6.4-.9.6.2-.4.2-.7.1-1.1-.1-.3-.3-.6-.6-.8.4 0 1 0 1.3.2z"/><path class="st7" d="M57.1 17.2h2.5l4 6.2 4-6.2H70v13.2h-2.3v-9.5l-4.2 6.2h-.1l-4-6.1v9.4h-2.3V17.2zm15.7-.5h2.4v2.2h-2.4v-2.2zm.1 3.7h2.3v9.9h-2.3v-9.9zm4.9 0h2.3V22c.6-.9 1.6-1.7 3.1-1.7 2.2 0 3.5 1.5 3.5 3.8v6.3h-2.3v-5.7c0-1.5-.8-2.4-2.1-2.4s-2.2.9-2.2 2.5v5.6h-2.3v-10zm11.4-3.7h2.4v2.2h-2.4v-2.2zm.1 3.7h2.3v9.9h-2.3v-9.9zm4 8.7l1-1.5c1.1.8 2.2 1.2 3.3 1.2 1 0 1.5-.4 1.5-1.1 0-.8-1.1-1-2.2-1.4-1.5-.4-3.1-1-3.1-2.9s1.6-3 3.5-3c1.2 0 2.6.4 3.7 1.1l-.9 1.6c-1-.6-2-.9-2.8-.9-.9 0-1.4.4-1.4 1 0 .7 1.1 1 2.2 1.4 1.5.5 3.1 1.1 3.1 2.9 0 2.1-1.6 3.1-3.7 3.1-1.4 0-2.9-.5-4.2-1.5zm10.4-1.5v-5.2h-1.3v-2h1.3v-2.7h2.3v2.7h2.7v2H106v4.9c0 .9.5 1.2 1.2 1.2.5 0 1-.1 1.4-.3V30c-.6.3-1.2.5-2.1.5-1.6 0-2.8-.7-2.8-2.9zm6.3-2.2c0-2.9 2-5.2 4.9-5.2 3.2 0 4.8 2.5 4.8 5.3v.6h-7.3c.2 1.6 1.4 2.5 2.9 2.5 1.1 0 1.9-.4 2.7-1.2l1.3 1.2c-.9 1.1-2.2 1.9-4.1 1.9-2.9.1-5.2-2-5.2-5.1zm7.4-.7c-.2-1.5-1-2.6-2.5-2.6-1.4 0-2.4 1.1-2.6 2.6h5.1zm4.2-4.3h2.3v2.2c.6-1.5 1.8-2.5 3.5-2.4v2.4h-.1c-2 0-3.4 1.3-3.4 3.9v3.8h-2.3v-9.9zm7.5-3.7h2.4v2.2h-2.4v-2.2zm0 3.7h2.3v9.9h-2.3v-9.9zm4.4 5.1c0-2.9 2.3-5.2 5.3-5.2 3.1 0 5.3 2.3 5.3 5.2 0 2.8-2.3 5.2-5.3 5.2-3.1-.1-5.3-2.4-5.3-5.2zm8.3 0c0-1.8-1.3-3.2-3.1-3.2s-3 1.4-3 3.2c0 1.7 1.3 3.2 3 3.2 2-.1 3.1-1.5 3.1-3.2zm9-.1c0-3.3 2.2-5.2 4.6-5.2 1.6 0 2.7.8 3.4 1.8v-5.4h2.3v13.8h-2.3v-1.7c-.7 1-1.8 1.9-3.4 1.9-2.3 0-4.6-1.9-4.6-5.2zm8.1 0c0-2-1.4-3.2-2.9-3.2-1.6 0-2.9 1.2-2.9 3.2 0 1.9 1.3 3.2 2.9 3.2 1.5 0 2.9-1.3 2.9-3.2zm4.1 0c0-2.9 2-5.2 4.9-5.2 3.2 0 4.8 2.5 4.8 5.3v.6h-7.3c.2 1.6 1.4 2.5 2.9 2.5 1.1 0 1.9-.4 2.7-1.2l1.3 1.2c-.9 1.1-2.2 1.9-4.1 1.9-2.9.1-5.2-2-5.2-5.1zm7.4-.7c-.2-1.5-1-2.6-2.5-2.6-1.4 0-2.4 1.1-2.6 2.6h5.1zm9.8-7.5h2.5l4 6.2 4-6.2h2.5v13.2h-2.3v-9.5l-4.2 6.2h-.1l-4.1-6.2v9.4h-2.3V17.2zm15.1 8.3c0-2.9 2.3-5.2 5.3-5.2 3.1 0 5.3 2.3 5.3 5.2 0 2.8-2.3 5.2-5.3 5.2-3-.1-5.3-2.4-5.3-5.2zm8.4 0c0-1.8-1.3-3.2-3.1-3.2s-3 1.4-3 3.2c0 1.7 1.3 3.2 3 3.2 1.9-.1 3.1-1.5 3.1-3.2zm3.7-.1c0-3.3 2.2-5.2 4.6-5.2 1.6 0 2.7.8 3.4 1.8v-5.4h2.3v13.8h-2.3v-1.7c-.7 1-1.8 1.9-3.4 1.9-2.3 0-4.6-1.9-4.6-5.2zm8 0c0-2-1.4-3.2-2.9-3.2-1.6 0-2.9 1.2-2.9 3.2 0 1.9 1.3 3.2 2.9 3.2 1.6 0 2.9-1.3 2.9-3.2zm4.2 0c0-2.9 2-5.2 4.9-5.2 3.2 0 4.8 2.5 4.8 5.3v.6H222c.2 1.6 1.4 2.5 2.9 2.5 1.1 0 1.9-.4 2.7-1.2l1.3 1.2c-.9 1.1-2.2 1.9-4.1 1.9-3 .1-5.2-2-5.2-5.1zm7.4-.7c-.2-1.5-1-2.6-2.5-2.6-1.4 0-2.4 1.1-2.6 2.6h5.1zm4.2-4.3h2.3v2.2c.6-1.5 1.8-2.5 3.5-2.4v2.4h-.1c-2 0-3.4 1.3-3.4 3.9v3.8h-2.3v-9.9zm7.4 0h2.3V22c.6-.9 1.6-1.7 3.1-1.7 2.2 0 3.5 1.5 3.5 3.8v6.3h-2.3v-5.7c0-1.5-.8-2.4-2.1-2.4s-2.2.9-2.2 2.5v5.6h-2.3v-10zm11.3-3.7h2.4v2.2h-2.4v-2.2zm.1 3.7h2.3v9.9H250v-9.9zm4.4 8.4l5.7-6.5h-5.5v-1.9h8.4V22l-5.7 6.5h5.7v1.9h-8.6v-1.6zm10-1.3c0-2.2 1.7-3.2 4.1-3.2 1.1 0 1.9.2 2.7.4v-.2c0-1.4-.9-2.2-2.5-2.2-1.1 0-1.9.2-2.8.6l-.6-1.8c1.1-.5 2.2-.8 3.7-.8s2.6.4 3.3 1.1c.7.7 1.1 1.8 1.1 3.1v5.9h-2.2v-1.2c-.7.8-1.7 1.5-3.2 1.5-1.9-.1-3.6-1.2-3.6-3.2zm6.8-.7v-.7c-.6-.2-1.4-.4-2.3-.4-1.5 0-2.3.6-2.3 1.7 0 1 .8 1.5 1.9 1.5 1.6 0 2.7-.8 2.7-2.1zm4-1.3c0-2.9 2.2-5.2 5.2-5.2 1.9 0 3 .7 4 1.7l-1.4 1.5c-.7-.7-1.4-1.2-2.6-1.2-1.7 0-2.9 1.4-2.9 3.2 0 1.8 1.2 3.2 3 3.2 1.1 0 1.9-.5 2.6-1.2l1.4 1.4c-1 1.1-2.1 1.9-4.1 1.9-3-.2-5.2-2.5-5.2-5.3zm11-8.8h2.4v2.2h-2.4v-2.2zm.1 3.7h2.3v9.9h-2.3v-9.9zm4.3 5.1c0-2.9 2.3-5.2 5.3-5.2 3.1 0 5.3 2.3 5.3 5.2 0 2.8-2.3 5.2-5.3 5.2-3-.1-5.3-2.4-5.3-5.2zm8.3 0c0-1.8-1.3-3.2-3.1-3.2s-3 1.4-3 3.2c0 1.7 1.3 3.2 3 3.2 2-.1 3.1-1.5 3.1-3.2zm-1.9-9.4l2 .9-2.3 2.2H295l2-3.1zm6.2 4.3h2.3V22c.6-.9 1.6-1.7 3.1-1.7 2.2 0 3.5 1.5 3.5 3.8v6.3h-2.3v-5.7c0-1.5-.8-2.4-2.1-2.4s-2.2.9-2.2 2.5v5.6h-2.3v-10zM57.1 37.6h6.7c4 0 6.5 2.3 6.5 5.7 0 3.8-3.1 5.8-6.8 5.8H60v5.5h-3v-17zm6.4 8.9c2.3 0 3.7-1.3 3.7-3 0-2-1.4-3-3.7-3H60v6.1h3.5zm9.2-4.7h2.9v2.9c.8-1.9 2.3-3.2 4.6-3.1v3.1H80c-2.6 0-4.4 1.7-4.4 5.1v4.9h-2.9V41.8zm9.1 6.5c0-3.7 2.6-6.7 6.3-6.7 4.1 0 6.2 3.2 6.2 6.9v.8h-9.4c.3 2.1 1.8 3.3 3.7 3.3 1.4 0 2.5-.5 3.5-1.5l1.7 1.5c-1.2 1.5-2.9 2.4-5.3 2.4-3.8-.1-6.7-2.8-6.7-6.7m9.5-1c-.2-1.9-1.3-3.4-3.3-3.4-1.8 0-3.1 1.4-3.3 3.4h6.6zm4.6 5.7l1.3-2c1.4 1 2.9 1.6 4.2 1.6 1.3 0 2-.5 2-1.4 0-1-1.4-1.3-2.9-1.8-1.9-.5-4-1.3-4-3.8 0-2.4 2-3.9 4.6-3.9 1.6 0 3.4.6 4.7 1.5l-1.2 2.1c-1.2-.8-2.6-1.2-3.6-1.2-1.1 0-1.8.5-1.8 1.3 0 .9 1.4 1.3 2.9 1.8 1.9.6 4 1.4 4 3.7 0 2.7-2.1 4-4.8 4-1.7 0-3.7-.7-5.4-1.9M109 37h3.2v2.8H109V37zm.1 4.8h2.9v12.9h-2.9V41.8zm5.9 6.4c0-4.3 2.9-6.7 6-6.7 2.1 0 3.5 1.1 4.4 2.3v-6.9h2.9v17.8h-2.9v-2.1c-.9 1.3-2.3 2.4-4.4 2.4-3.1-.1-6-2.5-6-6.8m10.4 0c0-2.5-1.8-4.2-3.7-4.2-2 0-3.7 1.6-3.7 4.1 0 2.5 1.7 4.1 3.7 4.1 1.9.2 3.7-1.5 3.7-4m5.6.1c0-3.7 2.6-6.7 6.3-6.7 4.1 0 6.2 3.2 6.2 6.9v.8h-9.4c.3 2.1 1.8 3.3 3.7 3.3 1.4 0 2.5-.5 3.5-1.5l1.7 1.5c-1.2 1.5-2.9 2.4-5.3 2.4-3.8-.1-6.7-2.8-6.7-6.7m9.5-1c-.2-1.9-1.3-3.4-3.3-3.4-1.8 0-3.1 1.4-3.3 3.4h6.6zm5.7-5.5h2.9v2c.8-1.2 2-2.3 4-2.3 2.9 0 4.6 1.9 4.6 4.9v8.2h-2.9v-7.3c0-2-1-3.1-2.8-3.1-1.7 0-2.9 1.2-2.9 3.2v7.3h-2.9V41.8zm14.1 6.5c0-3.7 2.8-6.8 6.7-6.8 2.4 0 3.9.9 5.1 2.2l-1.8 2c-.9-.9-1.9-1.6-3.3-1.6-2.1 0-3.7 1.8-3.7 4.1s1.6 4.1 3.8 4.1c1.4 0 2.4-.7 3.3-1.6l1.8 1.8c-1.3 1.4-2.8 2.4-5.3 2.4-3.8 0-6.6-3-6.6-6.6M174.7 37h3.2v2.8h-3.2V37zm.1 4.8h2.9v12.9h-2.9V41.8zm14.5 12.8V53c-.9 1-2.2 1.8-4.2 1.8-2.4 0-4.6-1.4-4.6-4 0-2.8 2.2-4.2 5.2-4.2 1.6 0 2.6.2 3.6.5V47c0-1.8-1.1-2.8-3.2-2.8-1.4 0-2.5.3-3.7.8l-.8-2.4c1.4-.6 2.8-1.1 4.9-1.1 3.8 0 5.6 2 5.6 5.4v7.6h-2.8zm0-5.3c-.8-.3-1.8-.5-2.9-.5-1.9 0-2.9.8-2.9 2s1.1 1.9 2.5 1.9c1.9 0 3.4-1.1 3.4-2.7v-.7zm12.5-1.1c0-4.3 2.9-6.7 6-6.7 2.1 0 3.5 1.1 4.4 2.3v-6.9h2.9v17.8h-2.9v-2.1c-.9 1.3-2.3 2.4-4.4 2.4-3-.1-6-2.5-6-6.8m10.4 0c0-2.5-1.8-4.2-3.7-4.2-2 0-3.7 1.6-3.7 4.1 0 2.5 1.7 4.1 3.7 4.1 2 .2 3.7-1.5 3.7-4m5.7.1c0-3.7 2.6-6.7 6.3-6.7 4.1 0 6.2 3.2 6.2 6.9v.8H221c.3 2.1 1.8 3.3 3.7 3.3 1.4 0 2.5-.5 3.5-1.5l1.7 1.5c-1.2 1.5-2.9 2.4-5.3 2.4-3.9-.1-6.7-2.8-6.7-6.7m9.5-1c-.2-1.9-1.3-3.4-3.3-3.4-1.8 0-3.1 1.4-3.3 3.4h6.6zm12.8-10.4h2.9v17.8h-2.9zm14.5 17.7V53c-.9 1-2.2 1.8-4.2 1.8-2.4 0-4.6-1.4-4.6-4 0-2.8 2.2-4.2 5.2-4.2 1.6 0 2.6.2 3.6.5V47c0-1.8-1.1-2.8-3.2-2.8-1.4 0-2.5.3-3.7.8l-.8-2.4c1.4-.6 2.8-1.1 4.9-1.1 3.8 0 5.6 2 5.6 5.4v7.6h-2.8zm0-5.3c-.8-.3-1.8-.5-2.9-.5-1.9 0-2.9.8-2.9 2s1.1 1.9 2.5 1.9c1.9 0 3.4-1.1 3.4-2.7v-.7zm13.5-11.7h2.8l9.1 11.8V37.6h3v17h-2.5l-9.4-12.1v12.1h-3zm26.5 17V53c-.9 1-2.2 1.8-4.2 1.8-2.4 0-4.6-1.4-4.6-4 0-2.8 2.2-4.2 5.2-4.2 1.6 0 2.6.2 3.6.5V47c0-1.8-1.1-2.8-3.2-2.8-1.4 0-2.5.3-3.7.8l-.8-2.4c1.4-.6 2.8-1.1 4.9-1.1 3.8 0 5.6 2 5.6 5.4v7.6h-2.8zm.1-5.3c-.8-.3-1.8-.5-2.9-.5-1.9 0-2.9.8-2.9 2s1.1 1.9 2.5 1.9c1.9 0 3.4-1.1 3.4-2.7v-.7zm5.4-1c0-3.7 2.8-6.8 6.7-6.8 2.4 0 3.9.9 5.1 2.2l-1.8 2c-.9-.9-1.9-1.6-3.3-1.6-2.1 0-3.7 1.8-3.7 4.1s1.6 4.1 3.8 4.1c1.4 0 2.4-.7 3.3-1.6l1.8 1.8c-1.3 1.4-2.8 2.4-5.3 2.4-3.8 0-6.6-3-6.6-6.6M314.6 37h3.2v2.8h-3.2V37zm.2 4.8h2.9v12.9h-2.9V41.8zm5.8 6.5c0-3.7 2.9-6.8 6.9-6.8 3.9 0 6.8 3 6.8 6.7s-2.9 6.7-6.9 6.7c-3.9 0-6.8-3-6.8-6.6m10.8 0c0-2.3-1.6-4.2-3.9-4.2-2.4 0-3.9 1.9-3.9 4.1 0 2.2 1.6 4.1 3.9 4.1 2.4.1 3.9-1.8 3.9-4m-2.6-12.1l2.7 1.2-3 2.8h-2.2l2.5-4zm8.3 5.6h2.9v2c.8-1.2 2-2.3 4-2.3 2.9 0 4.6 1.9 4.6 4.9v8.2h-2.9v-7.3c0-2-1-3.1-2.8-3.1-1.7 0-2.9 1.2-2.9 3.2v7.3h-2.9V41.8z"/></svg>