<svg id="Layer_1" xmlns="http://www.w3.org/2000/svg" viewBox="0 0 419.2 70"><style>.st0{fill:#ffc10e}.st1{fill:#fbbb80}.st2{fill:#2da34a;stroke:#2da34a;stroke-miterlimit:10}.st3{fill:#0094d4}.st4{fill:#ee4023}.st5{fill:#231f20}.st6{fill:#fff}.st7{fill:#959595}</style><path class="st0" d="M23.1 14.2l8.5 1.5.6-.5-2.2-1 2.8-.7-3.1-.7 3.3-1.3-3.4-.1 2.5-1.8-3.2.4L31 7.9l-2.7.9 1.3-2.3-2.3 1.2.8-2.5L26 6.8l.3-2.7-1.5 2.1-.3-2.4L23.3 6l-.7-2.5-.7 2.3-1.2-2-.3 2.4-1.8-1.9.4 2.6-2-1.7.7 2.6-2.2-1.4 1.4 2.4-2.6-.9 1.7 2-2.7-.2 2 1.7h-2.6l2.6 1.4-3.2.7 2.8.6-2.4 1.3 2.9.4 1.1-1.1 1.7.1 2.4-.6z"/><path class="st1" d="M8.7 52.5l6.8-3.1 2.1 1.6 3.6 1.5 4.6-1 3.7-2.3 6.6 3.3 2.7-6.1-6-.8L22 42.7l-3.7 1.5-3.4.8-8.8 1.2z"/><path class="st2" d="M35.7 58.2c-.5-.1-1.2-.1-2.1.3-.1 0-.2 0-.3-.1-.1-.1-.1-.2-.1-.3 0 0 .3-.6.3-1.3-.2.2-.5.4-.7.6-.6.7-.9 1.5-.9 2.3h.4c.2 0 .4 0 .6-.1.7 0 1.7-.4 2.8-1.4"/><path class="st2" d="M37.6 55.6c-.5 0-1.2.2-2 .7-.1.1-.2.1-.3 0-.1-.1-.1-.2-.1-.3 0 0 .1-.7.1-1.4-.2.2-.4.5-.5.7-.5.8-.7 1.6-.7 2.3h.1c.2 0 .6 0 1-.2.4-.1.9-.4 1.3-.7.4-.2.8-.6 1.1-1.1"/><path class="st2" d="M39.2 52.9c-.5.1-1.2.3-1.9.9-.1.1-.2.1-.3 0-.1 0-.1-.1-.1-.3 0 0 .1-.7-.1-1.4-.2.2-.3.5-.5.8-.4.8-.6 1.6-.4 2.4.2 0 .6-.1 1.1-.3.4-.2.8-.5 1.2-.8.4-.3.7-.8 1-1.3"/><path class="st2" d="M40.5 50c-.1 0-.2 0-.3.1-.4.1-1 .4-1.5 1-.1.1-.2.1-.3.1-.1 0-.2-.1-.2-.2 0 0 0-.7-.2-1.3-.1.3-.3.5-.4.8-.3.9-.4 1.7-.1 2.5.2 0 .6-.1 1.1-.4.4-.2.8-.6 1.1-1 .3-.6.6-1.1.8-1.6"/><path class="st2" d="M41.4 47c-.4.2-1.1.5-1.7 1.3-.1.1-.2.1-.3.1-.1 0-.2-.1-.2-.2 0 0-.1-.7-.4-1.4l-.3.9c-.2.6-.3 1.6.1 2.5.2 0 .6-.2 1-.5s.7-.6 1-1.1c.4-.5.7-1 .8-1.6.1 0 .1 0 0 0m-30 9.8c0 .7.3 1.3.3 1.3 0 .1 0 .2-.1.3-.1.1-.2.1-.3.1-.9-.3-1.6-.3-2.1-.3.9.8 1.8 1.3 2.7 1.5.2 0 .4.1.6.1h.4c.2-1.5-.9-2.5-1.5-3"/><path class="st2" d="M42 43.9c-.4.2-1 .7-1.5 1.5-.1.1-.2.1-.3.1-.1 0-.2-.1-.2-.2 0 0-.2-.8-.5-1.4-.1.3-.1.6-.2.9-.1 1 0 1.8.4 2.5.2-.1.6-.3.9-.6.3-.3.6-.7.9-1.2.3-.5.5-1 .5-1.6.1 0 .1 0 0 0"/><path class="st2" d="M41 42.4c0 .1-.1.2-.2.1-.1 0-.2-.1-.2-.2 0 0-.2-.7-.7-1.2-.1.3-.1.6-.1.9 0 .9.2 1.7.7 2.4.1-.1.5-.3.9-.7.3-.4.5-.8.7-1.3.2-.5.3-1 .3-1.6-.5.2-1 .8-1.4 1.6"/><path class="st2" d="M40.9 39.6c-.1 0-.2-.1-.2-.1s-.3-.6-.8-1.1c0 .8.1 2.2.9 3.1.1-.1.5-.3.8-.8.3-.4.5-.8.6-1.3.1-.5.2-1.1.2-1.7-.4.3-.9.9-1.2 1.7-.1.1-.2.1-.3.2"/><path class="st2" d="M40.7 36.5c-.1 0-.2 0-.3-.1 0 0-.4-.6-.8-1 .1.8.3 2.3 1.2 3 .1-.1.4-.4.7-.9.2-.4.4-.9.5-1.4.1-.5.1-1.1 0-1.7-.3.3-.8.9-1 1.8-.1.2-.2.3-.3.3"/><path class="st2" d="M40.3 33.6c-.1 0-.2 0-.3-.1 0 0-.4-.6-.9-1 0 .3.1.6.2.9.2.6.5 1.5 1.2 2.1.1-.1.4-.4.7-.9.2-.4.3-.9.4-1.4.1-.5 0-1.1-.1-1.7-.3.4-.7 1-.9 1.9-.1.1-.2.1-.3.2"/><path class="st2" d="M39.7 30.7c-.1 0-.2 0-.3-.1 0 0-.5-.5-1.1-.9.1.3.2.6.3.8.3.9.8 1.5 1.5 1.9.1-.1.4-.5.5-1 .1-.4.2-.9.2-1.4 0-.5-.1-1.1-.3-1.6-.3.4-.6 1.1-.6 2-.1.1-.1.2-.2.3"/><path class="st2" d="M38.4 27.8s-.5-.5-1.1-.8c.1.3.2.6.3.8.4.8 1 1.4 1.7 1.8.1-.1.3-.5.4-1 .1-.5.1-.9 0-1.5-.1-.5-.2-1-.5-1.6-.2.4-.5 1.1-.4 2 0 .1-.1.2-.1.2-.1.1-.3.1-.3.1"/><path class="st2" d="M35.8 24.5c.1.3.3.6.4.8.5.8 1.2 1.3 1.9 1.6.1-.1.2-.5.3-1.1 0-.5 0-1-.1-1.5s-.4-1-.7-1.5c-.2.4-.3 1.2-.2 2.1 0 .1 0 .2-.1.3-.1.1-.2 0-.3 0 .1-.1-.5-.6-1.2-.7"/><path class="st2" d="M34.1 22.2c.2.3.4.5.6.8.6.7 1.4 1.1 2.1 1.3.1-.2.2-.6.1-1.1 0-.5-.2-.9-.4-1.4-.2-.5-.5-.9-.9-1.4-.1.5-.1 1.2.1 2.1 0 .1 0 .2-.1.3-.1.1-.2.1-.3 0 .1-.2-.5-.6-1.2-.6"/><path class="st2" d="M33.8 20.3c-.1.1-.2.1-.3.1 0 0-.6-.2-1.3-.2h-.1l.7.7c.5.4 1.3.9 2.2.9 0-.2.1-.6-.1-1.1-.1-.5-.3-.9-.6-1.3s-.6-.8-1.1-1.2c0 .5.1 1.2.5 2 .1 0 .1.1.1.1m-23 37.4h.1c.1-1.3-.7-2.4-1.2-3-.1.6.1 1.3.1 1.3 0 .1 0 .2-.1.3-.1.1-.2.1-.3 0-.8-.5-1.5-.6-2-.7.4.5.7.9 1.1 1.2.4.3.8.6 1.3.7.4.2.8.2 1 .2"/><path class="st2" d="M9.1 55.4s0-.1 0 0c.2-1-.1-1.9-.4-2.4-.1-.3-.3-.5-.5-.8-.1.7-.1 1.3-.1 1.3 0 .1 0 .2-.1.3-.1.1-.2 0-.3 0-.7-.6-1.4-.8-1.9-.9.3.5.6 1 1 1.3.4.4.8.6 1.2.8.5.3.9.3 1.1.4"/><path class="st2" d="M7.5 52.9c.3-.8.2-1.6-.1-2.5-.1-.3-.2-.5-.4-.8-.2.6-.2 1.3-.2 1.4 0 .1-.1.2-.2.2s-.2 0-.3-.1c-.6-.6-1.1-.9-1.5-1-.1 0-.2-.1-.3-.1.2.5.5 1 .9 1.4.3.4.7.7 1.1 1 .4.3.8.4 1 .5"/><path class="st2" d="M6.2 50.2c.6-1.3.2-2.7-.1-3.3-.3.6-.4 1.3-.4 1.3 0 .1-.1.2-.2.2s-.2 0-.3-.1c-.5-.6-1-1-1.4-1.2-.1 0-.2-.1-.2-.1.6 2.4 2 3 2.6 3.2"/><path class="st2" d="M4.3 46.8c.4.4.8.5 1 .6.5-.8.6-1.7.4-2.5-.1-.3-.2-.6-.3-.8-.4.6-.5 1.3-.5 1.4 0 .1-.1.2-.2.2s-.2 0-.3-.1c-.5-.8-1.1-1.2-1.6-1.4.1.6.3 1.1.6 1.6.2.3.5.7.9 1"/><path class="st2" d="M4.4 44.5c1-1.3.9-2.6.8-3.3-.5.5-.7 1.2-.7 1.2 0 .1-.1.2-.2.2s-.2-.1-.2-.2c-.3-.7-.8-1.2-1.1-1.5l-.2-.2c-.1 2.6 1.1 3.5 1.6 3.8"/><path class="st2" d="M4.2 41.6c.5-.5.8-1 .9-1.8.1-.6.1-1.2 0-1.5-.5.5-.7 1.1-.7 1.2 0 .1-.1.2-.2.2s-.2-.1-.3-.2c-.2-.8-.6-1.3-.9-1.6l-.2-.2c-.2 2.4.9 3.5 1.4 3.9"/><path class="st2" d="M3.5 37.6c.2.4.5.7.7.8.6-.5.9-1.3 1.1-2.2 0-.3.1-.6.1-.9-.5.5-.8 1.1-.8 1.1 0 .1-.2.2-.3.1-.1 0-.2-.1-.2-.2-.2-.9-.7-1.5-1-1.8-.1.6-.1 1.2 0 1.7 0 .5.1.9.4 1.4"/><path class="st2" d="M3.8 34.5c.2.5.5.8.6.9.6-.6 1.1-1.3 1.3-2.2.1-.3.1-.5.1-.8-.5.4-.9 1-1 1-.1.1-.2.1-.3.1-.1 0-.2-.1-.2-.2-.2-.9-.6-1.5-.9-1.9-.1.6-.1 1.1-.1 1.7.1.5.3 1 .5 1.4"/><path class="st2" d="M4.8 32.5c.1 0 .1 0 0 0 .8-.5 1.3-1.2 1.6-2 .1-.3.1-.5.2-.8-.6.3-1.1.8-1.1.8-.1.1-.2.1-.3.1-.1 0-.2-.1-.2-.2-.1-.9-.4-1.6-.7-2-.2.6-.3 1.1-.3 1.6s.1 1 .2 1.4c.3.6.5 1 .6 1.1"/><path class="st2" d="M5.6 29.6c.9-.4 1.5-1 1.9-1.8.1-.2.2-.5.3-.8-.6.3-1.2.7-1.2.8-.1.1-.2.1-.3 0-.1 0-.2-.1-.1-.2 0-.9-.2-1.6-.4-2-.2.5-.4 1.1-.5 1.6-.1.5-.1 1 0 1.5 0 .4.2.7.3.9"/><path class="st2" d="M6.7 26.8c0 .1 0 .1 0 0 0 .1 0 .1 0 0 .8-.2 1.4-.7 2-1.5.2-.3.4-.6.5-.8-.7.1-1.3.6-1.3.6-.1.1-.2.1-.3 0-.1-.1-.2-.2-.1-.3.2-.9 0-1.6-.1-2.1-.3.5-.6 1-.7 1.5-.2.5-.2 1-.2 1.4 0 .7.1 1.1.2 1.2"/><path class="st2" d="M8.2 24.2c1.3-.2 2.2-1.3 2.7-2-.7.1-1.3.4-1.3.4-.1.1-.2.1-.3 0-.1-.1-.1-.2-.1-.3.3-.9.2-1.6.2-2.1-1.7 1.9-1.4 3.4-1.2 4"/><path class="st2" d="M10 21.8c.8 0 1.6-.5 2.1-.9.3-.2.5-.4.8-.7-.7 0-1.3.2-1.3.2-.1 0-.2 0-.3-.1-.1-.1-.1-.2 0-.3.4-.8.5-1.6.5-2-.5.4-.8.8-1.1 1.3-.3.4-.5.9-.6 1.3-.2.6-.2 1-.1 1.2-.1 0 0 0 0 0"/><path class="st2" d="M15.2 18.4c-.7-.1-1.3.1-1.3.1-.1 0-.2 0-.3-.1-.1-.1-.1-.2 0-.3.5-.8.6-1.5.7-2-2 1.4-2.1 2.9-2.1 3.5h.1c1.2.1 2.3-.7 2.9-1.2 0 .1 0 .1 0 0"/><path class="st2" d="M17.7 17.2c-.2-.1-.4-.1-.7-.1h-.7c-.1 0-.2-.1-.2-.2s0-.2.1-.3c.7-.6 1-1.1 1.2-1.5-2.3.8-2.8 2.1-2.9 2.7.2.1.5.1.9.1s1-.1 1.6-.3c.2-.1.5-.2.7-.4"/><path class="st2" d="M20.5 16.5c-.6-.3-1.3-.4-1.3-.4-.1 0-.2-.1-.2-.2s0-.2.1-.3c.8-.4 1.1-.8 1.3-1-1.2.2-2.1.6-2.7 1.2-.3.3-.5.6-.5.8.5.2 1.1.3 1.6.3.3 0 .6 0 .9-.1.2-.1.5-.2.8-.3"/><path class="st2" d="M22.3 15.7c-.1 0-.2-.1-.2-.3 0-.1.1-.2.2-.2.8-.2 1.2-.5 1.5-.7-1.2-.1-2.2.1-2.9.6-.4.2-.6.5-.7.7.8.6 1.8.7 2.6.7h.6c-.4-.6-1.1-.8-1.1-.8"/><path class="st2" d="M25.3 15.9c-.1-.1-.1-.2-.1-.3 0-.1.1-.2.2-.2.8-.1 1.3-.3 1.6-.4-1.1-.3-2.1-.3-2.9 0-.4.2-.7.4-.8.5 1 1.2 2.3 1.4 3 1.4-.4-.6-.9-1-1-1m7.6 3.8c0-.3 0-.8-.2-1.3-.3-.9-1.1-1.5-2.1-1.9.1.4.4 1 .8 1.6.1.1.1.2 0 .3-.1.1-.2.1-.3.1 0 0-.6-.2-1.3 0 .7.4 1.9 1.2 3 1.2h.1"/><path class="st2" d="M30.5 17.8c-.6-.6-1.3-.9-2.2-.9-.3 0-.6.1-.9.2.7.5 1.4.8 2.2.8h.1c.3.1.6 0 .8-.1m-4.3-1.9c.5.3 1 .5 1.6.5.3 0 .5 0 .8-.1.5-.1.9-.2 1.2-.3-.4-.2-.9-.4-1.3-.5-.5-.1-.9-.1-1.4 0-.3.1-.6.3-.9.4"/><path class="st3" d="M39.6 39.2c0-3.1-.5-6-1.4-8.8-.9-2.7-2.1-5.1-3.7-7.2-1.6-2.1-3.4-3.7-5.4-4.8-2.1-1.2-4.3-1.8-6.6-1.8s-4.5.6-6.6 1.8c-2 1.1-3.9 2.8-5.4 4.8-1.6 2.1-2.8 4.5-3.7 7.2-.9 2.8-1.4 5.8-1.4 8.8h34.2z"/><path class="st4" d="M22.5 33.7h4l1.6-1.5-1.9-7.8-1.9-2.1-2.3-.4-2.8 1.3-1 1.9.9 1.4-1.7 3.2-.5 3.1.9.8z"/><path class="st5" d="M21.4 14.2zm-3.4.5zm0 0z"/><path class="st6" d="M26.9 66.6c-1.6-.3-2.8-1.2-3.3-1.7l-.2.2c.1.5.6 1.6 2.6 2.1.4-.2.7-.4.9-.6m-5.5-1.7c-.5.5-1.7 1.4-3.3 1.7.2.2.5.4.9.6 2-.5 2.5-1.7 2.6-2.1l-.2-.2"/><path class="st5" d="M42.7 43.5c0-.1 0-.2-.1-.3-.1-.1-.2-.1-.2-.1.1-.1.1-.3.2-.5.3-.7.4-1.5.4-2.4 0-.1-.1-.2-.2-.3-.1 0-.2-.1-.2-.1.1-.1.1-.3.1-.4.2-.7.2-1.5.2-2.4 0-.1-.1-.2-.2-.3-.1 0-.2-.1-.2 0 0-.2.1-.3.1-.5.1-.7.1-1.5-.1-2.4 0-.1-.1-.2-.2-.3h-.2c0-.1 0-.2.1-.4.1-.7 0-1.5-.2-2.4 0-.1-.1-.2-.2-.2h-.3v-.6c0-.7-.2-1.5-.5-2.3 0-.1-.1-.2-.3-.2-.1 0-.2 0-.3.1V27c-.1-.7-.4-1.5-.8-2.3-.1-.1-.2-.2-.3-.2-.1 0-.2 0-.3.1 0-.2-.1-.3-.1-.5-.2-.7-.5-1.4-1-2.2-.1-.1-.2-.2-.3-.2-.1 0-.2.1-.3.2-.1-.2-.1-.4-.2-.6-.3-.7-.8-1.3-1.4-2-.1-.1-.2-.1-.3-.1-.1 0-.2.1-.2.1l-.3-.6c-.4-.6-.9-1.2-1.6-1.7-.1-.1-.2-.1-.3-.1-.1 0-.2.1-.2.2-.5-.6-1.1-1.1-1.9-1.3h.4c1 .1 1.6-.1 1.7-.2.2-.1.3-.3.3-.5s-.2-.4-.4-.4c-1.1-.1-1.4-.3-1.9-.5-.1-.1-.2-.1-.3-.2l2.5-.4c.2 0 .4-.2.4-.4s-.2-.4-.4-.4l-2.4-.4c.3-.1.6-.2 1-.3.9-.3 1.5-.8 1.5-.8.2-.1.2-.4.1-.6-.1-.2-.3-.3-.5-.2-1 .4-1.4.3-2 .2h-.3l2.1-1.3c.2-.1.3-.3.2-.5-.3.2-.5.1-.8.1l-2.4.6c.3-.1.5-.3.8-.6.7-.6 1.1-1.3 1.1-1.3.1-.2.1-.4-.1-.6-.2-.1-.4-.1-.6 0-.8.7-1.2.8-1.8 1-.1 0-.2.1-.3.1l1.5-2c.1-.2.1-.4 0-.6-.2-.2-.4-.2-.6 0l-2 1.5c.1-.3.3-.6.5-.9.4-.9.5-1.6.5-1.6 0-.2-.1-.4-.3-.5-.2-.1-.4 0-.5.2-.4 1-.8 1.2-1.2 1.6-.1.1-.2.1-.2.2l.6-2.4c.1-.2-.1-.4-.3-.5-.2-.1-.4 0-.5.2L25 5.5c0-.3.1-.6.1-1-.1-.8-.3-1.5-.3-1.5-.1-.2-.3-.3-.5-.3s-.4.2-.4.4c0 1.1-.3 1.4-.5 1.9 0 .1-.1.2-.1.3l-.4-2.4c0-.2-.2-.4-.4-.4s-.4.2-.4.4l-.3 2.4-.3-.9c-.3-.9-.8-1.5-.8-1.5-.1-.2-.4-.2-.6-.1-.2.1-.3.3-.2.5.4 1 .3 1.4.2 2v.3l-1.3-2.1c-.1-.2-.3-.3-.5-.2-.2.1-.3.3-.3.5l.6 2.4c-.2-.2-.4-.5-.6-.7-.6-.7-1.3-1.1-1.3-1.1-.2-.1-.4-.1-.6.1-.1.2-.1.4 0 .6.7.8.8 1.2 1 1.8 0 .1.1.2.1.3l-2-1.5c-.2-.1-.4-.1-.6 0-.2.2-.2.4 0 .6l1.5 2c-.3-.1-.6-.3-.9-.5-.9-.4-1.6-.5-1.6-.5-.2 0-.4.1-.5.3-.1.2 0 .4.2.5 1 .4 1.2.8 1.6 1.2.1.1.1.2.2.3L12.8 9c-.2-.1-.4.1-.5.3-.1.2 0 .4.2.5l2.1 1.3c-.3 0-.6-.1-1-.1-1-.1-1.6.1-1.7.2-.2.1-.3.3-.3.5s.2.4.4.4c1.1 0 1.4.3 1.9.5.1 0 .2.1.3.2l-2.5.4c-.2 0-.4.2-.4.4s.2.4.4.4l2.5.4c-.3.1-.6.2-1 .3-.9.3-1.5.8-1.5.8-.2.1-.2.4-.1.6.1.2.3.3.5.2.6-.2 1-.3 1.3-.3-.5.5-.9.8-1.1 1.1-.1.1-.2.3-.3.4 0-.1-.1-.1-.2-.1s-.2 0-.3.1c-.7.5-1.3 1.1-1.7 1.7l-.3.6-.2-.2c-.1 0-.2 0-.3.1-.6.6-1.1 1.3-1.4 2-.1.2-.1.4-.2.5-.1-.1-.1-.1-.2-.1s-.2 0-.3.1c-.5.7-.9 1.4-1.1 2.1-.1.2-.1.4-.1.6-.1-.1-.2-.1-.3-.1-.1 0-.2.1-.3.2-.4.8-.7 1.5-.8 2.3v.5c-.1-.1-.2-.1-.3-.1-.1 0-.2.1-.2.2-.3.8-.5 1.6-.5 2.3v.5c-.1-.1-.2-.1-.3 0-.1 0-.2.1-.2.2-.2.9-.3 1.7-.2 2.4 0 .1 0 .3.1.4h-.2c-.1 0-.2.1-.2.3-.2.9-.2 1.7-.1 2.4 0 .2.1.4.1.5h-.1c-.1.1-.2.2-.2.3-.1.9-.1 1.7.1 2.4 0 .2.1.3.1.5-.1 0-.2 0-.2.1.1-.1 0 0 0 .1 0 .9.1 1.7.3 2.4.1.2.1.4.2.6-.1 0-.2 0-.3.1-.1.1-.1.2-.1.3.1.9.4 1.6.7 2.3.1 0 .2.2.2.3-.1 0-.1 0-.2.1s-.1.2-.1.3c.2.9.5 1.6.9 2.2.1.1.2.3.3.4-.1 0-.2.1-.2.1-.1.1-.1.2 0 .3.3.8.7 1.5 1.2 2.1.1.2.2.3.3.5-.1 0-.2.1-.2.2-.1.1-.1.2 0 .3.4.8.9 1.4 1.4 2l.3.3c-.1 0-.1.1-.2.2v.3c.5.7 1 1.3 1.6 1.8.2.1.4.3.5.4h-.1c-.1 0-.2.1-.2.2s0 .2.1.3c.6.6 1.2 1.1 1.9 1.5.5.3 1 .5 1.5.6.4.1.9.1 1.2 0h.1c1.1.8 2.2 1.4 3.4 1.9 1 .4 2 .7 3 1 .2 0 .4.1.6.1-.4-.2-.2-.4-.5-.7-.1-.1-.7-.2-.8-.2-.7-.2-1.4-.4-2.1-.7-1.1-.5-2.2-1.1-3.3-1.8 0-.4 0-.7-.1-1.1.7.6 1.4 1.1 2.1 1.5 1 .6 2 1 3.1 1.3 0-.1.4-.1.4-.2 0-.2-.3-.4-.2-.5-1-.3-1.9-.7-2.9-1.2-2-1.1-3.8-2.7-5.3-4.7-.5-.7-1-1.5-1.5-2.2 1.2-.5 3.8-1.7 6.1-2.9 0 .1 0 .2.1.3.2.5.7.6 1.1.7h.4c.1.4.5.6 1 .8.2.1.4.1.5.1.1.2.2.4.4.5.5.3 1.1.3 1.4.2.2.2.5.4.8.5h.3c.2 0 .5-.1.7-.1v4.1c0 .3.2.5.5.5s.5-.2.5-.5v-4.3c.5.1 1 0 1.3-.1l.6-.3c.5.1 1-.1 1.4-.4.1-.1.2-.3.3-.4.7 0 1.2-.3 1.4-.6.1-.1.2-.3.3-.4.5 0 .8-.2 1.1-.4.1-.1.2-.3.3-.4 1.9 1.4 4.8 2.7 6.1 3.3-.4.7-.9 1.4-1.4 2.1-1.5 2-3.3 3.6-5.3 4.7-.9.5-1.9.9-2.9 1.2.1.1-.2.3-.1.5 0 .1.3.2.3.2 1.1-.3 2.1-.7 3.1-1.3.8-.4 1.5-1 2.2-1.5-.1.4-.1.7-.1 1.1v.1c-.3.2-1.2.9-2.4 1.5-.9.5-1.9.8-2.9 1.1H26c0 .1-.5.1-.6.2-.3.4-.3.6-.7.7.5-.1 1.1-.2 1.6-.3 1-.3 2-.6 3-1.1 1.3-.6 2.2-1.3 2.5-1.5h.1c.4.1.8.1 1.2 0 .5-.1 1-.3 1.5-.6.6-.4 1.2-.9 1.9-1.5.1-.1.1-.2.1-.3 0-.1-.1-.2-.2-.2h-.1c.2-.1.4-.2.6-.4.6-.5 1.1-1.1 1.6-1.8.1-.1.1-.2 0-.3 0-.1-.1-.1-.2-.2l.3-.3c.5-.5 1-1.2 1.4-2 .1-.1 0-.2 0-.3-.1-.1-.1-.2-.3-.2.1-.1.2-.3.4-.4.5-.6.9-1.3 1.2-2.1v-.3c-.1-.1-.2-.1-.3-.2.1-.1.2-.3.3-.4.4-.6.7-1.4.9-2.2 0-.1 0-.2-.1-.3-.1-.1-.2-.1-.3-.1.1-.2.2-.3.3-.5.3-1.1.5-1.8.6-2.7m-.4-2.7c0 .6-.1 1.2-.3 1.6-.2.5-.4.9-.7 1.3-.4.4-.7.6-.9.7-.5-.7-.7-1.5-.7-2.4 0-.3 0-.6.1-.9.4.5.7 1.2.7 1.2 0 .1.1.2.2.2s.2-.1.2-.1c.5-.8 1-1.4 1.4-1.6m0-3.1c0 .6 0 1.2-.1 1.7s-.3 1-.6 1.3c-.3.5-.7.7-.8.8-.8-1-.9-2.4-.9-3.1.5.5.8 1.1.8 1.1 0 .1.1.2.2.1.1 0 .2-.1.2-.2.3-.9.8-1.4 1.2-1.7m-.4-3.2c.1 0 .1 0 0 0 .1.6.1 1.2 0 1.7s-.2 1-.5 1.4c-.3.5-.6.8-.7.9-.8-.7-1.1-2.2-1.2-3 .5.4.8 1 .8 1 .1.1.2.1.3.1.1 0 .2-.1.2-.2.4-1 .8-1.6 1.1-1.9m-.5-3c.1 0 .1 0 0 0 .1.6.2 1.2.1 1.7s-.2 1-.4 1.4c-.2.5-.5.8-.7.9-.7-.6-1-1.5-1.2-2.1-.1-.3-.1-.6-.2-.9.5.4.9 1 .9 1 .1.1.2.1.3.1.1 0 .2-.1.2-.2.3-.9.7-1.6 1-1.9m-24 .2v-.1c.4-2.1 1.2-3.5 1.8-4.3.5-.6.9-1 1.1-1.2.1 0 .1-.1.2-.2.2-.2.2-.5.1-.7-.2-.2-.5-.3-.7-.1l-.2.2c-.5.3-.7.2-.8.2-.1-.1-.2-.3-.2-.5.1-.4.6-1 .8-1.2 1-1.2 2.6-1.2 2.7-1.2 0 0 .5 0 1.1.2.9.3 1.5.9 2 1.8.6 1.2 1.1 2.5 1.5 3.8-.9-.3-1.6-.9-1.6-.9-.2-.2-.5-.1-.7.1-.1.1-.1.2-.1.4 0 .1.1.2.2.3 0 0 1.2 1 2.5 1.3.1.5.2.9.3 1.5-.4-.2-.9-.4-1.4-.5-.3-.1-.6-.1-.8-.2-.9-.4-1.7-1-1.7-1-.2-.4-.5-.4-.6-.2-.2.2-.1.5.1.7 0 0 .9.7 2 1.1l.9.3c1.2.3 1.7.5 1.7 1.1 0 .1-.1.2-.1.2-.4.4-1.2.4-1.5.4h-1.1c-.2 0-1.3-.1-2.3-.7-2.7-1.5-3.8-1.2-5.2-.6m4.3 1.4h-3.4c-.3 0-.6-.1-.7-.3l-.1-.1c1.4-.6 2.1-.8 4.2.4m1.3 6.1v-5.1h2.8c.1 0 .4 0 .6-.1.6-.1 1.1-.3 1.4-.7.1-.1.3-.4.4-.6v-.1c.1-.2.1-.5 0-.9v-.1c-.3-2-.7-4.6-2.2-7.6-1.3-2.6-3.8-2.5-4-2.4-.2 0-2.1.1-3.3 1.5-.1.1-.9.9-1 1.7-.1.6.1 1.2.6 1.5.1 0 .2.1.3.1-.8 1-1.7 2.6-2.2 5-.1.4-.1.8-.1 1.1v.1c.1.4.2.7.4.9.2.3.7.6 1.5.6h3.6v8.2c-1 0-1.7.3-2.6 1-1.3.9-5.6 1.7-12.8 2.5-.5-2.1-.8-4.4-.8-6.6 0-3 .4-5.9 1.3-8.7.8-2.6 2.1-5 3.6-7.1 1.5-2 3.3-3.6 5.3-4.7 2.1-1.1 4.2-1.7 6.5-1.7 2.2 0 4.4.6 6.5 1.7 2 1.1 3.8 2.7 5.3 4.7s2.8 4.4 3.6 7.1c.9 2.7 1.3 5.7 1.3 8.7 0 2.3-.3 4.6-.8 6.7-4.2-.2-9.4-1.9-9.5-1.9-.4-.1-.7-.2-1-.4-1.1-.4-1.9-.7-2.8-.6h-.2c-.5-.3-1-.4-1.7-.6v-3.2zM29.9 16c-.3.1-.7.2-1.2.3-.3.1-.6.1-.8.1-.6 0-1.2-.2-1.6-.5.2-.1.5-.3 1-.4.5-.1.9-.1 1.4 0 .3.1.7.2 1.2.5m.6 1.8c-.2.1-.5.2-.8.2h-.1c-.8 0-1.5-.3-2.2-.8.3-.1.6-.2.9-.2.9-.1 1.6.2 2.2.8M27 15c-.3.1-.8.3-1.6.4-.1 0-.2.1-.2.2s0 .2.1.3c0 0 .6.4 1 1-.7 0-2.1-.2-3-1.4.2-.1.4-.4.8-.5.8-.3 1.8-.3 2.9 0m-3.2-.5c-.3.2-.7.5-1.5.7-.1 0-.2.1-.2.2s.1.2.2.3c0 0 .6.2 1.2.7h-.6c-.8 0-1.8-.1-2.6-.7.1-.2.3-.4.7-.7.6-.4 1.6-.6 2.8-.5 0-.1 0-.1 0 0m-3.3 0c-.2.3-.6.6-1.3 1-.1 0-.2.2-.1.3 0 .1.1.2.2.2 0 0 .7.1 1.3.4-.3.1-.6.2-.9.2-.3 0-.6.1-.9.1-.5 0-1-.1-1.6-.3.1-.2.2-.5.5-.8.6-.5 1.6-.9 2.8-1.1m-4.3 2.1c-.1.1-.1.2-.1.3 0 .1.1.2.2.2h.7c.3 0 .5.1.7.1-.3.1-.5.3-.8.4-.6.2-1.1.3-1.6.3-.4 0-.7-.1-.9-.1.1-.5.6-1.9 2.9-2.7-.1.3-.4.9-1.1 1.5m23.6 13.8c.1-.9.4-1.6.6-2 .2.6.3 1.1.3 1.6s0 1-.2 1.4c-.2.5-.4.9-.5 1-.7-.4-1.2-1.1-1.5-1.9-.1-.3-.2-.6-.3-.8.6.3 1.1.9 1.1.9.1.1.2.1.3.1.2-.1.2-.2.2-.3m-1-2.8c0-.9.2-1.6.4-2 .2.5.4 1.1.5 1.6.1.5.1 1 0 1.5s-.3.9-.4 1c-.7-.3-1.3-.9-1.7-1.8-.1-.3-.2-.5-.3-.8.6.3 1.1.7 1.1.8.1.1.2.1.3 0 0-.1.1-.2.1-.3m-1.4-2.5c.1-.1.1-.2.1-.3-.1-.9 0-1.6.2-2.1.3.5.5 1 .7 1.5.1.5.2 1 .1 1.5s-.2.9-.3 1.1c-.8-.3-1.4-.8-1.9-1.6-.2-.2-.3-.5-.4-.8.7.2 1.2.6 1.3.6-.1.2.1.2.2.1m-2-2.5c.1.1.2.1.3 0 .1-.1.1-.2.1-.3-.3-.8-.2-1.6-.1-2.1.4.5.7.9.9 1.4.2.5.3 1 .4 1.4 0 .5-.1.9-.1 1.1-.8-.1-1.5-.6-2.1-1.3-.2-.2-.4-.5-.6-.7.6.1 1.2.5 1.2.5m-1.9-2.2c.1 0 .2 0 .3-.1.1-.1.1-.2 0-.3-.4-.8-.5-1.5-.5-2 .4.4.8.8 1.1 1.2.3.4.5.9.6 1.3.1.5.1 1 .1 1.1-.9 0-1.7-.5-2.2-.9-.3-.2-.5-.4-.7-.7h.1l1.2.4m-.8-2c.2.5.2 1 .2 1.3h-.1c-1.1 0-2.3-.7-3-1.2.7-.1 1.3 0 1.3 0 .1 0 .2 0 .3-.1.1-.1.1-.2 0-.3-.4-.5-.7-1.1-.8-1.6 1 .4 1.8 1 2.1 1.9m-19.3-3.1c.1 0 .1 0 .2-.1.6-.2 1.2-.4 1.5-.4.7-.2 1.2-.5 1.2-.5.1 0 .1-.1.1-.2s-.1-.1-.1-.1l-3.1-.4 3.1-.5c.1 0 .2-.1.2-.2s-.1-.2-.2-.2c0 0-.7-.1-1.4-.4-.2-.1-.4-.2-.5-.3-.3-.1-.5-.3-.9-.4h.2c.7 0 1.3.1 1.6.2.7.1 1.3 0 1.3 0 .1 0 .1-.1.1-.1 0-.1 0-.1-.1-.2l-2.7-1.6 3 .8c.1 0 .2 0 .2-.1s0-.2-.1-.2c0 0-.6-.3-1.1-.9-.1-.2-.3-.3-.4-.5-.2-.2-.4-.5-.7-.7.1 0 .1 0 .1.1.6.3 1.1.6 1.4.8.6.4 1.2.5 1.2.5.1 0 .1 0 .2-.1v-.2l-1.9-2.5 2.5 1.8c.1.1.2 0 .2 0 .1-.1.1-.2 0-.2 0-.1-.4-.6-.7-1.3-.1-.2-.1-.4-.2-.6l-.3-.9.1.1c.4.5.8 1 1 1.2.4.6.8.9.9.9h.2c.1 0 .1-.1.1-.2l-.8-3 1.6 2.7c0 .1.1.1.2.1s.1-.1.1-.2c0 0-.2-.7-.1-1.4v-.6c0-.3.1-.6 0-1 0 .1 0 .1.1.2.2.6.4 1.2.4 1.5.1.7.4 1.1.5 1.2 0 .1.1.1.2.1.2.1.2 0 .2-.1l.4-3 .4 3c0 .1.1.2.2.2s.2-.1.2-.2c0 0 .1-.7.4-1.4.1-.2.2-.4.3-.5.1-.3.3-.5.4-.9v.2c0 .7-.1 1.3-.2 1.6-.1.7 0 1.3 0 1.3 0 .1.1.1.1.1.1 0 .1 0 .2-.1L26 4.8l-.8 3c0 .1 0 .2.1.2s.2 0 .2-.1.4-.6.9-1.1c.2-.1.3-.3.5-.4.2-.2.5-.4.7-.7 0 0 0 .1-.1.1-.3.6-.6 1.1-.8 1.4-.4.6-.5 1.2-.5 1.2 0 .1 0 .1.1.2h.2L29 6.7l-1.8 2.5c-.1.1 0 .2 0 .2.1.1.2.1.2 0 0 0 .5-.4 1.3-.7.2-.1.4-.1.6-.2l.9-.3-.1.1c-.5.4-1 .8-1.2 1-.6.4-.9.9-.9.9v.2c0 .1.1.1.2.1l3-.8-2.7 1.6c-.1 0-.1.1-.1.2s.1.1.2.1.7-.2 1.4-.1h.6c.3 0 .6.1 1 0-.1 0-.1 0-.2.1-.6.2-1.2.4-1.5.4-.7.2-1.2.5-1.2.5-.1 0-.1.1-.1.2s.1.1.1.1l3.1.4-3 .8c-.1 0-.2.1-.2.2s.1.2.2.2.7.1 1.4.4c.2.1.4.2.5.3.3.1.5.3.9.4h-.2c-.7 0-1.3-.1-1.6-.2h-.1c-.6-.2-1.1-.4-1.7-.4 0-.1-.1-.2-.2-.3-.8-.3-1.6-.4-2.3-.4-.3 0-.5 0-.7.1v-.1c-.1-.1-.2-.2-.3-.2-.9-.1-1.7-.1-2.4 0-.3.1-.5.1-.8.2 0-.1 0-.1-.1-.2s-.2-.1-.3-.1c-.9.1-1.7.3-2.3.5-.2.1-.3.2-.5.2 0-.1-.1-.2-.1-.2-.1-.1-.2-.1-.3-.1-.9.2-1.6.6-2.2 1h-1.1c-.4 0-.7-.1-1 0m.8.8s0 .1 0 0c0 .5-.1 1.2-.6 2-.1.1-.1.2 0 .3.1.1.2.1.3.1 0 0 .7-.1 1.3-.1-.6.5-1.7 1.2-2.9 1.2h-.1c-.1-.5 0-2 2-3.5M10 20.6c.1-.5.3-.9.6-1.3s.7-.9 1.1-1.3c0 .5-.1 1.2-.5 2v.3c.1.1.2.1.3.1 0 0 .6-.2 1.3-.2-.3.2-.5.5-.8.7-.5.4-1.3.9-2 .9h-.1c0-.2 0-.6.1-1.2m-.7-.3c.1.5.2 1.2-.1 2.1 0 .1 0 .2.1.3.1.1.2.1.3 0 0 0 .6-.4 1.3-.4-.5.7-1.4 1.8-2.7 2-.2-.7-.5-2.2 1.1-4m-2.7 4c.2-.5.4-1 .7-1.5.1.4.3 1.2.1 2.1 0 .1 0 .2.1.3.1.1.2 0 .3 0 0 0 .5-.5 1.3-.6-.1.2-.3.5-.5.8-.6.8-1.2 1.3-2 1.5-.1-.1-.2-.5-.3-1.1l.3-1.5m-1.5 2.8c.1-.5.2-1 .5-1.6.2.4.5 1.1.4 2 0 .1.1.2.1.2h.3s.6-.5 1.2-.8c-.1.3-.2.5-.3.8-.4.8-1 1.4-1.8 1.8-.1-.2-.3-.5-.4-1v-1.4m-.7 1.3c.3.4.6 1 .7 2 0 .1.1.2.2.2s.2 0 .3-.1c0 0 .5-.6 1.1-.9 0 .3-.1.5-.2.8-.3.9-.8 1.6-1.6 2-.1-.1-.4-.5-.5-1-.2-.4-.2-.9-.2-1.4-.1-.5 0-1 .2-1.6m-.9 3.1c0-.1 0-.1 0 0 0-.1 0-.1 0 0 .3.4.8 1 .9 1.9 0 .1.1.2.2.2s.2 0 .3-.1c0 0 .4-.6 1-1 0 .3-.1.5-.1.8-.2.9-.6 1.6-1.3 2.2-.2-.2-.5-.5-.7-1-.2-.4-.3-.9-.4-1.4-.1-.5 0-1.1.1-1.6m-.5 3c.4.3.8.9 1 1.8 0 .1.1.2.2.2s.2 0 .3-.1c0 0 .3-.6.8-1.1 0 .3 0 .6-.1.9-.2.9-.5 1.7-1.1 2.2-.1-.1-.4-.4-.6-.8-.2-.4-.4-.9-.5-1.4-.1-.5-.1-1.1 0-1.7m-.3 3.2s.1 0 0 0c.1 0 .1 0 0 0 .1 0 .2.1.2.2.3.3.7.8.9 1.6 0 .1.1.2.3.2.1 0 .2-.1.2-.2 0 0 .1-.7.7-1.2.1.4.1.9 0 1.5-.1.7-.4 1.3-.9 1.8-.4-.4-1.5-1.5-1.4-3.9m-.1 3.1c.1.1.2.1.2.2.3.3.8.8 1.1 1.5 0 .1.1.2.2.2s.2-.1.2-.2c0 0 .3-.7.7-1.2.1.7.2 1.9-.7 3.3-.4-.4-1.6-1.3-1.7-3.8m.2 3.2c.5.2 1.1.6 1.6 1.4.1.1.2.1.3.1.1 0 .2-.1.2-.2 0 0 .2-.8.5-1.4.1.3.2.5.3.8.2.9 0 1.7-.4 2.5-.2-.1-.6-.2-1-.6-.4-.3-.7-.7-.9-1.2-.3-.2-.5-.8-.6-1.4m.7 3c.1 0 .2.1.3.1.4.2.9.5 1.4 1.2.1.1.2.1.3.1.1 0 .2-.1.2-.2 0 0 .1-.7.4-1.3.3.7.7 2 .1 3.3-.6-.2-2-.8-2.7-3.2m1.8 4.5c-.3-.4-.6-.9-.9-1.4.1 0 .2.1.3.1.4.1 1 .4 1.5 1 .1.1.2.1.3.1.1 0 .2-.1.2-.2 0 0 0-.7.2-1.4.1.3.3.5.4.8.3.9.4 1.7.1 2.5-.2 0-.6-.1-1.1-.4-.3-.4-.6-.7-1-1.1m.5 1.4c.5.1 1.2.3 1.9.9.1.1.2.1.3 0 .1-.1.1-.2.1-.3 0 0-.1-.7.1-1.3.2.3.3.5.5.8.3.6.6 1.5.4 2.4-.2 0-.6-.1-1.1-.3-.4-.2-.8-.5-1.2-.8-.4-.4-.7-.9-1-1.4m5.9 5.2s-.3-.6-.3-1.3c.6.5 1.6 1.6 1.5 3h-.4c-.2 0-.4 0-.6-.1-.9-.2-1.8-.7-2.7-1.5.5-.1 1.2-.1 2.1.3.1 0 .2 0 .3-.1.2-.1.2-.2.1-.3m-2.3-1.9c.1.1.2.1.3 0 .1-.1.1-.2.1-.3 0 0-.2-.6-.1-1.3.5.6 1.3 1.8 1.2 3h-.1c-.2 0-.6 0-1-.2-.4-.1-.9-.4-1.3-.7-.4-.3-.8-.7-1.1-1.2.5.1 1.2.2 2 .7m10.1-6.8c-.1.1-.2.1-.2.2-.6.4-.9.8-1 1.2-.1 0-.1 0-.2-.1-.4-.1-.4-.4-.5-.4 0-.2.1-.4.4-.7.4-.4.7-.5 1-.5.1 0 .2 0 .3.1.1 0 .2.1.2.2m.5 2.2c-.2 0-.6.1-.9-.1-.1 0-.1-.1-.1-.2 0-.4.4-.7.7-.9.4-.3.7-.5 1-.5.1 0 .2 0 .3.1.1.1.1.1.1.2s-.2.3-.3.4c-.3.3-.6.6-.8 1m2.2.1c-.2.1-.7.5-1.1.4-.1 0-.2 0-.3-.1.2-.4.6-.7 1-.9.5-.3.7-.1.7-.1.1.1.1.2.1.2 0 .1-.2.4-.4.5.1-.1.1-.1 0 0m-4.6-2.9l-.2.2c-.3.2-.5.5-.6.9h-.2c-.3 0-.4-.1-.5-.2 0 0-.1-.2.1-.4.2-.3.7-.6 1.1-.6h.1c.1.1.2.1.2.1m11.1.6c-.1.1-.3.2-.6.2-.4-.5-1.3-1.6-2.5-2.2-.1-.1-.2-.1-.3 0-.1 0-.2.1-.2.2-.1.1-.1.2 0 .3 0 .1.1.2.2.2 1 .5 1.8 1.5 2.2 1.9 0 .1-.1.1-.1.2-.2.2-.4.3-.7.3-.1-.2-.3-.5-.6-.8-.4-.4-1.1-.9-1.1-1-.1-.1-.2-.1-.3-.1-.1 0-.2.1-.3.2-.1.1-.1.2-.1.3 0 .1.1.2.2.3.2.1.7.5 1 .8.3.3.4.5.4.6 0 .1-.1.2-.2.3-.2.1-.3.2-.6.2-.1-.2-.4-.7-.8-1.2-.2-.2-.4-.2-.6 0-.1.1-.1.2-.1.3 0 .1 0 .2.1.3.3.3.5.7.6.9-.1 0-.1.1-.2.1-.2.1-.5.1-.7.1.1-.2.2-.3.2-.5s0-.6-.4-1c-.2-.2-.6-.4-1-.3 0-.3-.2-.5-.4-.7-.4-.3-.9-.4-1.4-.3-.1-.2-.3-.5-.7-.7-.4-.2-.8-.2-1.2-.1-.4-.3-.8-.4-.9-.4-.6-.1-1.3.2-1.8.7-2.5 1.3-5.6 2.7-6.9 3.3-.7-1.3-1.3-2.6-1.7-4.1-.2-.3-.3-.7-.4-1.1 3.6-.4 6.5-.8 8.7-1.3 2.2-.4 3.7-.9 4.4-1.4.8-.6 1.4-.9 2.2-.8.2 0 .4 0 .5.1-.2.1-.3.1-.4.2-.3.2-.5.4-.7.6-.2.2-.3.3-.6.4l-.6.3c-.5.2-.9.4-1 .8-.1.4-.1.7.2 1.1.4.5 1 .5 1.5.5.6 0 1.3-.2 1.8-.5.2-.1.3-.2.5-.3.2-.1.4-.3.5-.3.4-.1.9-.1 1.5.2.5.2 1 .5 1.5.8 1.1.7 2 1.7 2.2 2-.1.1-.1.2-.3.4m1.6-.4c-.4-.3-.6-.5-.8-.7l-.1-.1c-.4-.5-1.2-1.4-2.3-2.1-.8-.5-2.3-1.5-3.7-1.1-.3.1-.5.2-.8.4-.1.1-.3.2-.4.3-.4.3-1 .4-1.4.4-.4 0-.7 0-.8-.1v-.1c.1-.1.4-.3.6-.3.2-.1.5-.2.7-.4.3-.2.5-.3.6-.5.2-.1.4-.3.7-.5.4-.3.9-.3 1.6-.3h.6c.8 0 1.5.2 2.5.6.3.1.6.2 1 .4.1 0 1.5.5 3.4.9 1.7.4 4.1.9 6.4 1-.1.4-.2.7-.3 1.1-.5 1.5-1.1 2.9-1.8 4.2-1.1-.5-3.9-1.7-5.7-3.1m5.4 9.2c-1.1 1-2.1 1.4-2.7 1.5-.2 0-.4.1-.6.1H32c0-.8.3-1.6.9-2.3.2-.2.4-.4.7-.6-.1.7-.3 1.3-.3 1.3 0 .1 0 .2.1.3.1.1.2.1.3.1.7-.5 1.5-.5 2-.4m1.9-2.6c-.4.5-.7.9-1.1 1.2-.4.3-.8.6-1.3.7-.4.1-.8.2-1 .2h-.1c-.1-.8.2-1.5.7-2.3.2-.2.3-.5.5-.7.1.7-.1 1.3-.1 1.4 0 .1 0 .2.1.3.1.1.2.1.3 0 .8-.7 1.5-.8 2-.8m.6-1.4c-.4.4-.8.6-1.2.8-.5.2-.9.3-1.1.3-.1-.8 0-1.6.4-2.4.1-.3.3-.5.5-.8.1.7.1 1.4.1 1.4 0 .1 0 .2.1.3h.3c.7-.6 1.4-.8 1.9-.9-.3.5-.6 1-1 1.3m1.5-2.7c-.3.4-.7.7-1.1 1-.5.3-.9.4-1.1.4-.2-.8-.2-1.6.1-2.5.1-.3.2-.5.4-.8.2.7.2 1.3.2 1.3 0 .1.1.2.2.2s.2 0 .3-.1c.6-.6 1.1-.9 1.5-1 .1 0 .2-.1.3-.1-.2.6-.5 1.1-.8 1.6m1-3c-.3.4-.6.8-1 1.1-.4.3-.9.5-1 .5-.4-.9-.3-1.8-.1-2.5l.3-.9c.3.6.4 1.4.4 1.4 0 .1.1.2.2.2s.2 0 .3-.1c.6-.7 1.2-1.1 1.7-1.3-.2.7-.5 1.2-.8 1.6m.9-3c-.2.5-.5.9-.9 1.2-.4.4-.8.5-.9.6-.4-.7-.5-1.5-.4-2.5 0-.3.1-.6.2-.9.4.6.5 1.3.5 1.4 0 .1.1.2.2.2s.2 0 .3-.1c.5-.8 1.1-1.2 1.5-1.5-.1.6-.3 1.1-.5 1.6"/><path class="st5" d="M23.6 11c3-.5 3.3.4 3.3.4s.1.2.3.1c0 0 .2 0 .1-.3 0 0-.3-1-1.9-1.1 0 0-.8-.1-1.7 0-.3 0-.3.6-.3.6-.1.3.2.3.2.3m-2.6.5c-.4-.2-1.2-.1-1.2-.1-1.3 0-1.7.9-1.7.9-.1.3.1.3.1.3.3.1.4-.2.4-.2s.1-.2.6-.4v.3c0 .4.3.7.7.7.4 0 .7-.3.7-.7 0-.1 0-.2-.1-.3.2.1.4.2.5.4 0 .1.2.1.4.1.3 0 .2-.2.2-.2-.1-.6-.6-.8-.6-.8m2.5 1.1c.3 0 .4 0 .4-.1.1-.2.3-.4.5-.4 0 .1-.1.2-.1.3 0 .4.3.7.7.7.4 0 .7-.3.7-.7v-.3c.6.1.6.4.6.4s.1.2.4.2c0 0 .2 0 .1-.3 0 0-.4-.8-1.7-.9 0 0-.8 0-1.2.1 0 0-.4.2-.6.9 0 0-.1.1.2.1m-5.8-1.1c.2.1.3-.1.3-.1s.3-.9 3.3-.4c0 0 .3.1.2-.2 0 0-.1-.6-.3-.6-.9-.2-1.7 0-1.7 0-1.6.2-1.9 1.1-1.9 1.1-.1.2.1.2.1.2"/><path class="st3" d="M73.7 23.3h4.2l11.3 25.8h-4.8L81.8 43H69.7l-2.6 6.2h-4.6l11.2-25.9zM80.2 39l-4.4-10.3L71.4 39h8.8zm12.1-9.2h4.4v4.4c1.2-2.9 3.4-4.9 6.9-4.7v4.7h-.3c-3.9 0-6.6 2.5-6.6 7.7v7.4h-4.4V29.8zm14.4 23l1.6-3.3c2.1 1.3 4.2 2.1 6.9 2.1 4 0 6.1-2.1 6.1-5.9v-1.5c-1.6 2.1-3.6 3.6-6.8 3.6-4.5 0-8.8-3.4-8.8-9v-.1c0-5.7 4.3-9.1 8.8-9.1 3.3 0 5.3 1.5 6.8 3.3V30h4.4v15.4c0 3.3-.8 5.7-2.5 7.3-1.8 1.8-4.5 2.6-7.9 2.6-3.1-.2-6.1-1-8.6-2.5zm14.7-14.2c0-3.2-2.6-5.4-5.7-5.4s-5.5 2.1-5.5 5.3v.1c0 3.2 2.5 5.3 5.5 5.3 3.1 0 5.7-2.2 5.7-5.3zm8.2 1c0-5.6 3.9-10.1 9.5-10.1 6.2 0 9.3 4.8 9.3 10.4 0 .4 0 .8-.1 1.2H134c.5 3.2 2.7 4.9 5.6 4.9 2.2 0 3.7-.8 5.2-2.3l2.6 2.3c-1.8 2.2-4.4 3.6-7.9 3.6-5.6 0-9.9-4.1-9.9-10zm14.3-1.5c-.3-2.9-2-5.1-4.9-5.1-2.7 0-4.6 2.1-5 5.1h9.9zm8.2-8.3h4.4v3c1.2-1.8 3-3.4 6-3.4 4.4 0 6.9 2.9 6.9 7.4v12.3H165v-11c0-3-1.5-4.7-4.1-4.7-2.6 0-4.4 1.8-4.4 4.8v10.9h-4.4V29.8zm22.9 14V33.6h-2.5v-3.8h2.5v-5.3h4.4v5.3h5.2v3.8h-5.2v9.5c0 1.7.9 2.4 2.4 2.4 1 0 1.9-.2 2.7-.7v3.6c-1.1.6-2.3 1-4 1-3.2.1-5.5-1.3-5.5-5.6zm13.5-21.1h4.8v4.2h-4.8v-4.2zm.2 7.1h4.4v19.3h-4.4V29.8zm9.5 0h4.4v3c1.2-1.8 3-3.4 6-3.4 4.4 0 6.9 2.9 6.9 7.4v12.3h-4.4v-11c0-3-1.5-4.7-4.1-4.7-2.6 0-4.4 1.8-4.4 4.8v10.9h-4.4V29.8zm20.7 13.8c0-4.2 3.3-6.3 8-6.3 2.2 0 3.7.3 5.2.8v-.5c0-2.7-1.7-4.2-4.8-4.2-2.2 0-3.8.5-5.5 1.2l-1.2-3.5c2.1-1 4.2-1.6 7.3-1.6 2.9 0 5.1.8 6.4 2.2 1.4 1.4 2.1 3.4 2.1 6v11.5H232v-2.4c-1.3 1.6-3.3 2.8-6.3 2.8-3.6 0-6.8-2.1-6.8-6zm13.2-1.4v-1.3c-1.1-.4-2.6-.8-4.4-.8-2.9 0-4.5 1.2-4.5 3.2v.1c0 1.9 1.6 2.9 3.8 2.9 2.9.1 5.1-1.6 5.1-4.1zm8.6 1.9h4.9v5.1h-4.9v-5.1zm9.4 8.7l1.6-3.3c2.1 1.3 4.2 2.1 6.9 2.1 4 0 6.1-2.1 6.1-5.9v-1.5c-1.6 2.1-3.6 3.6-6.8 3.6-4.5 0-8.8-3.4-8.8-9v-.1c0-5.7 4.3-9.1 8.8-9.1 3.3 0 5.3 1.5 6.8 3.3V30h4.4v15.4c0 3.3-.8 5.7-2.5 7.3-1.8 1.8-4.5 2.6-7.9 2.6-3.1-.2-6.1-1-8.6-2.5zm14.7-14.2c0-3.2-2.6-5.4-5.7-5.4s-5.5 2.1-5.5 5.3v.1c0 3.2 2.5 5.3 5.5 5.3 3.1 0 5.7-2.2 5.7-5.3zm8.1 1c0-5.6 4.4-10.2 10.3-10.2s10.3 4.5 10.3 10v.1c0 5.5-4.4 10.1-10.4 10.1-5.8 0-10.2-4.5-10.2-10zm16.2 0c0-3.5-2.5-6.3-5.9-6.3-3.6 0-5.8 2.8-5.8 6.2v.1c0 3.4 2.5 6.2 5.9 6.2 3.5-.1 5.8-2.9 5.8-6.2zm12.7 6.6v3h-4.4V22.4h4.4V33c1.4-2 3.4-3.6 6.6-3.6 4.5 0 9 3.6 9 10v.1c0 6.4-4.4 10-9 10-3.3.1-5.3-1.5-6.6-3.3zm11-6.7c0-3.8-2.5-6.3-5.5-6.3s-5.6 2.5-5.6 6.2v.1c0 3.7 2.6 6.2 5.6 6.2 3 0 5.5-2.4 5.5-6.2zm8.1 4.6h4.9v5.1h-4.9v-5.1zm8.2-.5c0-4.2 3.3-6.3 8-6.3 2.2 0 3.7.3 5.2.8v-.5c0-2.7-1.7-4.2-4.8-4.2-2.2 0-3.8.5-5.5 1.2l-1.2-3.5c2.1-1 4.2-1.6 7.3-1.6 2.9 0 5.1.8 6.4 2.2 1.4 1.4 2.1 3.4 2.1 6v11.5h-4.3v-2.4c-1.3 1.6-3.3 2.8-6.3 2.8-3.7 0-6.9-2.1-6.9-6zm13.2-1.4v-1.3c-1.1-.4-2.6-.8-4.4-.8-2.9 0-4.5 1.2-4.5 3.2v.1c0 1.9 1.6 2.9 3.8 2.9 2.9.1 5.1-1.6 5.1-4.1zm8.8-12.4h4.4v4.4c1.2-2.9 3.4-4.9 6.9-4.7v4.7h-.3c-3.9 0-6.6 2.5-6.6 7.7v7.4h-4.4V29.8zM24 64.2v-.7c.5-.1 1.4-.4 1.9-1 .3-.3.4-.8.4-1.2 0-.4-.2-.7-.6-.9-.9-.6-2.7-.2-3.2 0-.5-.1-2.3-.6-3.2 0-.3.2-.5.5-.6.9-.1.5.1.9.4 1.2.5.6 1.4.9 1.9 1v.7c-.4.4-1.7 1.5-3.5 1.7.1.1.2.4.5.6 1.6-.3 2.8-1.2 3.3-1.7l.2.2c-.1.5-.6 1.6-2.6 2.1.3.2.7.3 1.2.3 1.4-.6 1.9-1.6 2.1-2.2h.6c.2.6.7 1.5 2.1 2.2.5-.1.9-.2 1.2-.3-2-.5-2.5-1.7-2.6-2.1l.2-.2c.5.5 1.7 1.4 3.3 1.7.3-.3.5-.6.5-.6-1.9-.2-3.1-1.3-3.5-1.7zm-3.5-2.6c-.1.4-.1.8.1 1.1-.4-.1-.7-.3-.9-.6-.2-.2-.2-.4-.2-.7 0-.2.1-.3.3-.4.2-.1.5-.2.9-.2h.5c-.4.2-.6.4-.7.8zm2 3.1c-.4 0-.8-.4-.8-.8s.4-.8.8-.8.8.4.8.8-.4.8-.8.8zm1-2c-.3-.2-.6-.4-1-.4s-.7.1-1 .4c-.2-.2-.4-.6-.3-.9.3-.7 1.3-.7 1.3-.7s.3 0 .6.1c.4.1.6.3.7.6.1.3-.1.7-.3.9zm1.8-1.7c.1.1.2.2.3.4 0 .3 0 .5-.2.7-.2.3-.6.4-.9.6.2-.4.2-.7.1-1.1-.1-.3-.3-.6-.6-.8.4 0 1 0 1.3.2z"/><path class="st7" d="M383.6 42.7c-.2 1.3-.5 2.5-1 3.5s-1.2 1.8-2 2.3-1.7.7-2.7.7c-1.4 0-2.5-.6-3.2-1.6l-.4 1.4h-2.5l3.1-18h2.8l-1.3 6.6c.9-1 2.1-1.5 3.4-1.5 1.2 0 2.2.5 2.9 1.3s1.1 2.1 1.1 3.6c-.1.4-.2 1-.2 1.7zm-2.7-1.6c0-.9-.2-1.5-.5-2s-.9-.7-1.5-.7c-1.1 0-2.1.5-2.8 1.6l-.9 5.2c.3 1.1 1.1 1.6 2.2 1.7.9 0 1.7-.3 2.3-1.1.6-.8 1-1.8 1.2-3.1v-1.6zm9.7 8.1c-1.1 0-2.1-.3-2.9-.8s-1.4-1.3-1.8-2.2-.5-1.9-.4-3.1v-.5c.1-1.3.5-2.4 1.1-3.5.6-1.1 1.4-1.8 2.3-2.3s1.9-.8 3-.8c1.6 0 2.8.6 3.6 1.8.8 1.1 1.1 2.6.9 4.5l-.2 1.2h-8c-.1 1 .1 1.8.6 2.4.5.6 1.1.9 2 .9 1.2 0 2.3-.5 3.3-1.6l1.4 1.5c-.5.8-1.2 1.3-2.1 1.8s-1.7.7-2.8.7zm1.2-10.9c-1.5 0-2.6 1-3.3 3.1h5.3v-.2c.1-.4.1-.7 0-1.1-.1-.6-.3-1-.7-1.3s-.7-.5-1.3-.5zm11.9-5.1l-.5 3.1h2.2l-.4 2.1h-2.2l-1.2 7.1v.5c0 .5.4.8.9.8.3 0 .6 0 1-.1l-.2 2.2c-.6.2-1.2.2-1.7.2-1 0-1.7-.3-2.2-1s-.7-1.5-.6-2.6l1.2-7.2h-2l.4-2.1h2l.5-3.1h2.8v.1zm9.2 15.8c-.1-.3-.1-.7-.1-1.2-1 1-2.2 1.4-3.4 1.4-1.1 0-2-.4-2.7-1.1s-1.1-1.6-1-2.6c.1-1.3.6-2.4 1.7-3.2 1.1-.8 2.6-1.1 4.4-1.1h1.8l.2-.9v-.9c-.2-.8-.7-1.3-1.7-1.3-.6 0-1.1.1-1.6.5s-.7.7-.8 1.3h-2.8c.1-.8.3-1.5.8-2.1.5-.6 1.2-1 2-1.4.8-.4 1.7-.5 2.6-.5 1.4 0 2.5.4 3.2 1.2.7.8 1.1 1.8 1 3.1l-1 5.9-.1 1.1c0 .5 0 .9.2 1.3v.2h-2.7v.3zm-2.8-2.1c.6 0 1.1-.1 1.6-.4s.9-.7 1.3-1.1l.4-2.4h-1.3c-1 0-1.9.2-2.5.6-.6.4-1 .9-1.1 1.6-.1.5.1.9.3 1.2.2.3.7.5 1.3.5z"/></svg>